<svg xmlns="http://www.w3.org/2000/svg" width="212.464" height="28.42" viewBox="0 0 212.464 28.42"><path d="M-97.923-21a10.033,10.033,0,0,1,4.144.735,5.07,5.07,0,0,1,2.38,2.072,6.218,6.218,0,0,1,.77,3.157,5.988,5.988,0,0,1-.77,3.115,4.926,4.926,0,0,1-2.373,1.988,10.56,10.56,0,0,1-4.151.693h-3.066V-.35h2.506V0h-7.686V-.35h2.506v-20.3h-2.506V-21Zm-3.066,11.41h3.066a3.31,3.31,0,0,0,1.792-.49,4.3,4.3,0,0,0,1.316-1.3A6.465,6.465,0,0,0-94-13.139a6.744,6.744,0,0,0,.28-1.9A6.963,6.963,0,0,0-94-16.954a6.951,6.951,0,0,0-.812-1.82,4.5,4.5,0,0,0-1.309-1.358,3.167,3.167,0,0,0-1.8-.518h-3.066ZM-85.127-6.1a15.053,15.053,0,0,1,.21-2.506,8.93,8.93,0,0,1,.686-2.275,4.492,4.492,0,0,1,1.239-1.645,2.838,2.838,0,0,1,1.841-.616,2.761,2.761,0,0,1,1.337.3,2.119,2.119,0,0,1,.84.791,2.068,2.068,0,0,1,.287,1.064,1.8,1.8,0,0,1-.427,1.211,1.477,1.477,0,0,1-1.183.5,1.664,1.664,0,0,1-1.2-.42,1.39,1.39,0,0,1-.441-1.05,1.433,1.433,0,0,1,.518-1.211,1.8,1.8,0,0,1,1.12-.4,1.79,1.79,0,0,1,.812.182,1.456,1.456,0,0,1,.574.5,1.223,1.223,0,0,1,.21.693h-.35a1.594,1.594,0,0,0-.273-.91,1.952,1.952,0,0,0-.756-.651,2.4,2.4,0,0,0-1.1-.245,2.553,2.553,0,0,0-1.659.574A4.29,4.29,0,0,0-84-10.675a9.262,9.262,0,0,0-.686,2.156A12.572,12.572,0,0,0-84.917-6.1Zm.21-6.776V-.35h1.862V0h-6.118V-.35H-87.4V-12.53h-1.778v-.35ZM-71,.28A6.159,6.159,0,0,1-74.41-.644a6.273,6.273,0,0,1-2.219-2.45,7.213,7.213,0,0,1-.784-3.346,7.213,7.213,0,0,1,.784-3.346,6.221,6.221,0,0,1,2.219-2.443A6.2,6.2,0,0,1-71-13.146a6.23,6.23,0,0,1,3.416.917,6.152,6.152,0,0,1,2.219,2.443,7.267,7.267,0,0,1,.777,3.346,7.267,7.267,0,0,1-.777,3.346,6.2,6.2,0,0,1-2.219,2.45A6.194,6.194,0,0,1-71,.28Zm0-.35A2.688,2.688,0,0,0-69.16-.679,3.86,3.86,0,0,0-68.1-2.261a8.735,8.735,0,0,0,.49-2.086,18.656,18.656,0,0,0,.126-2.093,18.584,18.584,0,0,0-.126-2.1,8.731,8.731,0,0,0-.49-2.079A3.86,3.86,0,0,0-69.16-12.2,2.688,2.688,0,0,0-71-12.81a2.694,2.694,0,0,0-1.834.609,3.771,3.771,0,0,0-1.057,1.582,9.207,9.207,0,0,0-.49,2.079,17.621,17.621,0,0,0-.133,2.1,17.689,17.689,0,0,0,.133,2.093,9.208,9.208,0,0,0,.49,2.086A3.771,3.771,0,0,0-72.835-.679,2.694,2.694,0,0,0-71-.07Zm14.056,7.35a12.237,12.237,0,0,1-2.345-.217,6.976,6.976,0,0,1-1.974-.679,3.687,3.687,0,0,1-1.344-1.176A2.975,2.975,0,0,1-63.091,3.5a2.792,2.792,0,0,1,.434-1.6A3.383,3.383,0,0,1-61.579.875,4.855,4.855,0,0,1-60.263.322,4.857,4.857,0,0,1-59.115.154h.252a2.794,2.794,0,0,0-1.274,1.274,4.348,4.348,0,0,0-.336,1.778,3.8,3.8,0,0,0,.427,1.729,3.554,3.554,0,0,0,1.288,1.4,3.929,3.929,0,0,0,2.163.553,6.945,6.945,0,0,0,2.009-.28,5.174,5.174,0,0,0,1.631-.8,3.876,3.876,0,0,0,1.1-1.26,3.391,3.391,0,0,0,.4-1.645,2.218,2.218,0,0,0-.476-1.442,2.993,2.993,0,0,0-1.253-.9A4.537,4.537,0,0,0-54.873.252h-3.164a7.284,7.284,0,0,1-3.024-.525A1.8,1.8,0,0,1-62.195-2.03,2.077,2.077,0,0,1-61.789-3.3a3.17,3.17,0,0,1,1.106-.91,6.058,6.058,0,0,1,1.6-.546,9.479,9.479,0,0,1,1.89-.182l-.014.252a4.983,4.983,0,0,0-.973.105,4.56,4.56,0,0,0-1,.322,2.422,2.422,0,0,0-.777.539,1.071,1.071,0,0,0-.3.756.826.826,0,0,0,.77.875,10.472,10.472,0,0,0,1.918.147q.49,0,.861-.007L-56-1.967q.343-.007.735-.007a9.141,9.141,0,0,1,1.582.14,3.872,3.872,0,0,1,1.463.574A3.012,3.012,0,0,1-51.156.021a5.406,5.406,0,0,1,.4,2.275,4.627,4.627,0,0,1-.511,2.233,4.352,4.352,0,0,1-1.393,1.547,6.545,6.545,0,0,1-1.988.9A8.7,8.7,0,0,1-56.945,7.28Zm-.434-11.9a6.833,6.833,0,0,1-1.736-.231,5.134,5.134,0,0,1-1.624-.742,3.889,3.889,0,0,1-1.2-1.323,3.983,3.983,0,0,1-.455-1.974,3.943,3.943,0,0,1,.455-1.967,3.843,3.843,0,0,1,1.2-1.309,5.348,5.348,0,0,1,1.624-.742,6.644,6.644,0,0,1,1.736-.238,6.413,6.413,0,0,1,1.715.238,5.035,5.035,0,0,1,1.575.742,3.757,3.757,0,0,1,1.148,1.309,4.1,4.1,0,0,1,.434,1.967,4.14,4.14,0,0,1-.434,1.974,3.8,3.8,0,0,1-1.148,1.323,4.836,4.836,0,0,1-1.575.742A6.6,6.6,0,0,1-57.379-4.62Zm0-.35a1.814,1.814,0,0,0,1.358-.546,3.3,3.3,0,0,0,.784-1.442,7.111,7.111,0,0,0,.252-1.932,7.035,7.035,0,0,0-.252-1.925,3.3,3.3,0,0,0-.784-1.435,1.814,1.814,0,0,0-1.358-.546,1.814,1.814,0,0,0-1.358.546,3.3,3.3,0,0,0-.784,1.435,7.035,7.035,0,0,0-.252,1.925,12.533,12.533,0,0,0,.14,1.932,2.677,2.677,0,0,0,.644,1.442A2.1,2.1,0,0,0-57.379-4.97Zm7.546-4.4A1.5,1.5,0,0,1-50.8-9.73a1.274,1.274,0,0,1-.448-1.05,1.11,1.11,0,0,1,.455-1,1.71,1.71,0,0,1,.959-.3,1.8,1.8,0,0,1,.987.3.976.976,0,0,1,.469.875H-48.7a1.838,1.838,0,0,0-.483-1.211,1.746,1.746,0,0,0-1.407-.567,3.294,3.294,0,0,0-1.211.266,3.307,3.307,0,0,0-1.246.931,4.274,4.274,0,0,0-.861,1.869l-.252-.168a4.261,4.261,0,0,1,.91-1.96,3.655,3.655,0,0,1,1.351-.987,3.525,3.525,0,0,1,1.281-.287,2.274,2.274,0,0,1,1.2.308,2.215,2.215,0,0,1,.791.791,1.994,1.994,0,0,1,.28,1.015,1.37,1.37,0,0,1-.476,1.218A1.769,1.769,0,0,1-49.833-9.366Zm9.3,9.646A6.627,6.627,0,0,1-43.8-.525a5.91,5.91,0,0,1-2.31-2.31,7.191,7.191,0,0,1-.854-3.605,7.4,7.4,0,0,1,.819-3.6,5.755,5.755,0,0,1,2.24-2.3,6.431,6.431,0,0,1,3.227-.805,5.9,5.9,0,0,1,3.29.812A4.706,4.706,0,0,1-35.6-10.192a7.284,7.284,0,0,1,.56,2.856H-45.087v-.35H-38q0-.742-.084-1.631A7.716,7.716,0,0,0-38.43-11a3.074,3.074,0,0,0-.8-1.3,2.02,2.02,0,0,0-1.449-.511,2.587,2.587,0,0,0-1.68.532,3.508,3.508,0,0,0-1.029,1.449,8.509,8.509,0,0,0-.525,2.051,17.361,17.361,0,0,0-.154,2.338A16.618,16.618,0,0,0-43.9-4.1a7.431,7.431,0,0,0,.567,2.03A3.557,3.557,0,0,0-42.21-.644a3,3,0,0,0,1.827.532A4.966,4.966,0,0,0-37.1-1.176a5.68,5.68,0,0,0,1.8-2.618h.406a6.092,6.092,0,0,1-1.946,2.9A5.578,5.578,0,0,1-40.537.28ZM-29.225.2a2.466,2.466,0,0,1-1.708-.511,2.5,2.5,0,0,1-.749-1.274,6.354,6.354,0,0,1-.189-1.533V-15.68a4.03,4.03,0,0,0,1.365-.266,4.652,4.652,0,0,0,1.155-.574V-2.282A2.673,2.673,0,0,0-29.1-.875a.94.94,0,0,0,.826.357A1.96,1.96,0,0,0-26.88-1.19a5.234,5.234,0,0,0,1.057-1.54l.294.182A5.233,5.233,0,0,1-26.985-.567,3.4,3.4,0,0,1-29.225.2ZM-33.817-12.53v-.35h7.462v.35ZM-20.629.2a2.466,2.466,0,0,1-1.708-.511,2.5,2.5,0,0,1-.749-1.274,6.354,6.354,0,0,1-.189-1.533V-15.68a4.03,4.03,0,0,0,1.365-.266,4.652,4.652,0,0,0,1.155-.574V-2.282A2.673,2.673,0,0,0-20.5-.875a.94.94,0,0,0,.826.357,1.96,1.96,0,0,0,1.393-.672,5.234,5.234,0,0,0,1.057-1.54l.294.182A5.233,5.233,0,0,1-18.389-.567,3.4,3.4,0,0,1-20.629.2ZM-25.221-12.53v-.35h7.462v.35ZM-9.5.28a6.159,6.159,0,0,1-3.409-.924,6.273,6.273,0,0,1-2.219-2.45,7.213,7.213,0,0,1-.784-3.346,7.213,7.213,0,0,1,.784-3.346,6.221,6.221,0,0,1,2.219-2.443A6.2,6.2,0,0,1-9.5-13.146a6.23,6.23,0,0,1,3.416.917A6.152,6.152,0,0,1-3.864-9.786,7.267,7.267,0,0,1-3.087-6.44a7.267,7.267,0,0,1-.777,3.346A6.2,6.2,0,0,1-6.083-.644,6.194,6.194,0,0,1-9.5.28Zm0-.35A2.688,2.688,0,0,0-7.658-.679,3.86,3.86,0,0,0-6.6-2.261a8.735,8.735,0,0,0,.49-2.086A18.658,18.658,0,0,0-5.985-6.44a18.586,18.586,0,0,0-.126-2.1,8.731,8.731,0,0,0-.49-2.079A3.86,3.86,0,0,0-7.658-12.2,2.688,2.688,0,0,0-9.5-12.81a2.694,2.694,0,0,0-1.834.609,3.771,3.771,0,0,0-1.057,1.582,9.206,9.206,0,0,0-.49,2.079,17.62,17.62,0,0,0-.133,2.1,17.688,17.688,0,0,0,.133,2.093,9.208,9.208,0,0,0,.49,2.086A3.771,3.771,0,0,0-11.333-.679,2.694,2.694,0,0,0-9.5-.07ZM12.747.28,9.443-21h2.688L14.945-3.654,24.647-21h.378L13.139.28ZM2.919,0V-.35H7.4V0ZM4.851,0,9.2-20.65H7.119V-21h2.52L5.215,0ZM18.459,0V-.35h6.86V0Zm1.96,0L24.9-21h4.34v.35H27.447L23.079,0ZM31.381.28a4.26,4.26,0,0,1-2.268-.567,3.615,3.615,0,0,1-1.4-1.575A5.419,5.419,0,0,1,27.237-4.2a9.158,9.158,0,0,1,.588-3.2,10.046,10.046,0,0,1,1.652-2.891,8.417,8.417,0,0,1,2.5-2.086,6.393,6.393,0,0,1,3.115-.784,3.386,3.386,0,0,1,2.345.749,2.4,2.4,0,0,1,.833,1.855,2.991,2.991,0,0,1-.784,2.037,6.341,6.341,0,0,1-2.093,1.505,14.048,14.048,0,0,1-2.884.973,20.963,20.963,0,0,1-3.171.469V-5.88a15.927,15.927,0,0,0,2.282-.315,8.764,8.764,0,0,0,1.9-.63,5.182,5.182,0,0,0,1.435-.987A4.062,4.062,0,0,0,35.875-9.2a4.872,4.872,0,0,0,.322-1.834,2.607,2.607,0,0,0-.287-1.232A1.047,1.047,0,0,0,34.9-12.81a2.771,2.771,0,0,0-1.519.462,5.466,5.466,0,0,0-1.344,1.26,10.82,10.82,0,0,0-1.127,1.8,14.625,14.625,0,0,0-.861,2.114,16.343,16.343,0,0,0-.546,2.2,12.094,12.094,0,0,0-.189,2.058A2.817,2.817,0,0,0,29.96-.77a2.342,2.342,0,0,0,1.631.588A4.824,4.824,0,0,0,33.74-.658a6.183,6.183,0,0,0,1.757-1.3,8.679,8.679,0,0,0,1.344-1.841l.308.182A8.423,8.423,0,0,1,35.77-1.666,6.575,6.575,0,0,1,33.838-.252,5.566,5.566,0,0,1,31.381.28Zm24.752,0a2.121,2.121,0,0,1-1.582-.5,1.794,1.794,0,0,1-.476-1.3,2.578,2.578,0,0,1,.063-.581q.063-.273.119-.483l1.764-6.048a11.472,11.472,0,0,0,.56-2.968q0-1.05-.812-1.05a2.775,2.775,0,0,0-1.8.777,9.048,9.048,0,0,0-1.715,2.072A18.62,18.62,0,0,0,50.8-6.916a24.07,24.07,0,0,0-1.05,3.192h-.266A27.437,27.437,0,0,1,50.54-6.979a19.629,19.629,0,0,1,1.505-3.059,8.941,8.941,0,0,1,1.883-2.254,3.377,3.377,0,0,1,2.191-.854,2.544,2.544,0,0,1,1.848.581,2.283,2.283,0,0,1,.651,1.533,5.977,5.977,0,0,1-.273,2.086l-2.226,7.7a1.56,1.56,0,0,0-.063.273,1.938,1.938,0,0,0-.021.273.48.48,0,0,0,.147.364A.575.575,0,0,0,56.6-.2a2.179,2.179,0,0,0,1.281-.42A4.35,4.35,0,0,0,59.024-1.96,15.678,15.678,0,0,0,60.151-4.4l.336.112a15.947,15.947,0,0,1-1.211,2.618A4.337,4.337,0,0,1,57.918-.189,3.3,3.3,0,0,1,56.133.28ZM39.193,0l3-12.53H40.313v-.35h4.2L41.433,0Zm7.42,0,2.1-8.624a16.451,16.451,0,0,0,.518-2.982q.042-1.036-.77-1.036a2.853,2.853,0,0,0-1.82.777,9.14,9.14,0,0,0-1.757,2.072,18.7,18.7,0,0,0-1.5,2.877,22.306,22.306,0,0,0-1.071,3.192h-.252a25.957,25.957,0,0,1,1.071-3.255,18.6,18.6,0,0,1,1.554-3.059,9.042,9.042,0,0,1,1.96-2.254,3.573,3.573,0,0,1,2.261-.854,2.248,2.248,0,0,1,1.7.581,2.43,2.43,0,0,1,.63,1.533,6.529,6.529,0,0,1-.2,2.086L48.839,0ZM65.6.28a3.76,3.76,0,0,1-3.136-1.288,4.953,4.953,0,0,1-1.022-3.178,9.767,9.767,0,0,1,.609-3.458,9.6,9.6,0,0,1,1.659-2.863,8,8,0,0,1,2.4-1.946,6.033,6.033,0,0,1,2.835-.707,3.746,3.746,0,0,1,3.143,1.295A5,5,0,0,1,73.1-8.68a9.767,9.767,0,0,1-.609,3.458,9.6,9.6,0,0,1-1.659,2.863,7.9,7.9,0,0,1-2.4,1.939A6.081,6.081,0,0,1,65.6.28Zm-.2-.35a2.671,2.671,0,0,0,1.491-.476,5.887,5.887,0,0,0,1.372-1.309,11.538,11.538,0,0,0,1.19-1.9,17.124,17.124,0,0,0,.938-2.24,16.809,16.809,0,0,0,.616-2.352,12.22,12.22,0,0,0,.217-2.212,2.473,2.473,0,0,0-.5-1.638,1.949,1.949,0,0,0-1.582-.6,2.684,2.684,0,0,0-1.484.476,5.819,5.819,0,0,0-1.379,1.309,11.538,11.538,0,0,0-1.19,1.9,17.124,17.124,0,0,0-.938,2.24,16.888,16.888,0,0,0-.616,2.345,12.175,12.175,0,0,0-.217,2.219,2.455,2.455,0,0,0,.511,1.631A1.941,1.941,0,0,0,65.4-.07ZM73.885,0l3.122-12.53h-2.17v-.35h4.34L76.1,0Zm3.066-4.508q.238-1.078.609-2.268A23.453,23.453,0,0,1,78.421-9.1a13.154,13.154,0,0,1,1.092-2.044A5.842,5.842,0,0,1,80.836-12.6a2.515,2.515,0,0,1,1.547-.546,1.924,1.924,0,0,1,1.4.49,1.6,1.6,0,0,1,.5,1.19,1.754,1.754,0,0,1-.364,1.12,1.242,1.242,0,0,1-1.036.462,1.416,1.416,0,0,1-1.036-.4,1.362,1.362,0,0,1-.406-1.015,1.285,1.285,0,0,1,.385-.945,1.448,1.448,0,0,1,1.071-.385,1.493,1.493,0,0,1,.966.315,1.03,1.03,0,0,1,.392.847h-.322a1.292,1.292,0,0,0-.4-.945,1.544,1.544,0,0,0-1.141-.4,2.364,2.364,0,0,0-1.477.539,5.81,5.81,0,0,0-1.274,1.428A12.834,12.834,0,0,0,78.6-8.855q-.469,1.1-.833,2.226t-.6,2.121ZM87.535.28A2.3,2.3,0,0,1,85.925-.2a1.669,1.669,0,0,1-.518-1.281,2.947,2.947,0,0,1,.035-.441q.035-.231.091-.455l2.912-10.15h-2.1v-.35h4.382L87.437-1.218a1.835,1.835,0,0,0-.042.231,1.871,1.871,0,0,0-.014.217.688.688,0,0,0,.126.413.5.5,0,0,0,.434.175,2.165,2.165,0,0,0,1.3-.427A4.332,4.332,0,0,0,90.37-1.967,18.3,18.3,0,0,0,91.5-4.4l.336.112a15.947,15.947,0,0,1-1.211,2.618A4.439,4.439,0,0,1,89.285-.189,3.162,3.162,0,0,1,87.535.28Zm3.4-18.046A1.579,1.579,0,0,1,90.1-18a1.73,1.73,0,0,1-.6-.616,1.654,1.654,0,0,1-.224-.847,1.654,1.654,0,0,1,.224-.847,1.674,1.674,0,0,1,.6-.609,1.617,1.617,0,0,1,.84-.224,1.654,1.654,0,0,1,.847.224,1.712,1.712,0,0,1,.616.609,1.615,1.615,0,0,1,.231.847,1.615,1.615,0,0,1-.231.847,1.77,1.77,0,0,1-.616.616A1.615,1.615,0,0,1,90.937-17.766ZM96.019.28a3.058,3.058,0,0,1-2.7-1.211,5.748,5.748,0,0,1-.847-3.339,8.858,8.858,0,0,1,.6-3.185,11.2,11.2,0,0,1,1.6-2.863,8.81,8.81,0,0,1,2.205-2.065,4.446,4.446,0,0,1,2.415-.777,2.062,2.062,0,0,1,1.568.574,3.032,3.032,0,0,1,.742,1.5,9.574,9.574,0,0,1,.2,1.988,11.545,11.545,0,0,1-.189,2.016,13.833,13.833,0,0,1-.553,2.114,13.442,13.442,0,0,1-.875,1.995A8.918,8.918,0,0,1,99.022-1.3a5.426,5.426,0,0,1-1.4,1.155A3.226,3.226,0,0,1,96.019.28Zm.448-.588a2.584,2.584,0,0,0,1.554-.546A6.135,6.135,0,0,0,99.4-2.317a10.971,10.971,0,0,0,1.113-2.065,13.976,13.976,0,0,0,.742-2.359,10.862,10.862,0,0,0,.266-2.331,8.563,8.563,0,0,0-.182-1.862,2.752,2.752,0,0,0-.6-1.274,1.474,1.474,0,0,0-1.148-.462,2.236,2.236,0,0,0-1.449.616,6.831,6.831,0,0,0-1.351,1.645,14.972,14.972,0,0,0-1.127,2.275,16.152,16.152,0,0,0-.777,2.52,11.068,11.068,0,0,0-.28,2.366,3.914,3.914,0,0,0,.5,2.212A1.572,1.572,0,0,0,96.467-.308Zm5.642.588a1.811,1.811,0,0,1-1.442-.532,2.017,2.017,0,0,1-.462-1.372q0-.238.014-.427a2.725,2.725,0,0,1,.042-.329l.364-2.058.686-2.128.392-2.422.938-3.892h2.366L101.9-1.2a1.733,1.733,0,0,0-.056.448.634.634,0,0,0,.133.406.53.53,0,0,0,.441.168,2.122,2.122,0,0,0,1.288-.434,4.5,4.5,0,0,0,1.134-1.365,16.964,16.964,0,0,0,1.12-2.415l.336.112a15.947,15.947,0,0,1-1.211,2.618,4.514,4.514,0,0,1-1.323,1.477A2.94,2.94,0,0,1,102.109.28Z" transform="translate(106.169 21.14)" fill="#202a2c"/></svg>