<svg xmlns="http://www.w3.org/2000/svg" width="264.819" height="63.083" viewBox="0 0 264.819 63.083"><g transform="translate(-827.683 -46.045)"><path d="M-117.68-10.988a4.285,4.285,0,0,0-.554-2.276,3.3,3.3,0,0,0-1.712-1.343,8.3,8.3,0,0,0-2.921-.441h-2.686v-.492h2.686a9.3,9.3,0,0,0,2.921-.389,3.17,3.17,0,0,0,1.712-1.23,3.965,3.965,0,0,0,.554-2.214h.512v8.384ZM-111-30.75v8.4h-.512a11.378,11.378,0,0,0-.666-3.987,5.985,5.985,0,0,0-2.132-2.849,6.468,6.468,0,0,0-3.864-1.056h-6.56V-.512h4.1V0h-11.685V-.512h3.67V-30.238h-3.67v-.512Zm8,31.16A6.592,6.592,0,0,1-106.61-.4a4.017,4.017,0,0,1-1.671-2.2,10.534,10.534,0,0,1-.441-3.178V-18.347h-2.6v-.513h6.273V-6.314a28.048,28.048,0,0,0,.154,3.1,4.8,4.8,0,0,0,.7,2.173,1.88,1.88,0,0,0,1.671.8A4.946,4.946,0,0,0-99.425-1.2a6.524,6.524,0,0,0,1.937-2.429,11.915,11.915,0,0,0,.974-3.1,17.652,17.652,0,0,0,.277-2.952l.328-.144a21.974,21.974,0,0,1-.256,3.147,12.744,12.744,0,0,1-.974,3.362A6.655,6.655,0,0,1-99.271-.646,6.085,6.085,0,0,1-103,.41ZM-96.237,0V-18.347h-2.87v-.513h6.58V-.512h2.583V0Zm13.981.287a3.611,3.611,0,0,1-2.5-.748,3.655,3.655,0,0,1-1.1-1.866,9.3,9.3,0,0,1-.277-2.245V-22.96a5.9,5.9,0,0,0,2-.389,6.812,6.812,0,0,0,1.691-.84V-3.342a3.914,3.914,0,0,0,.369,2.06,1.377,1.377,0,0,0,1.209.523,2.869,2.869,0,0,0,2.04-.984A7.664,7.664,0,0,0-77.275-4l.431.266a7.662,7.662,0,0,1-2.132,2.9A4.983,4.983,0,0,1-82.256.287ZM-88.98-18.347v-.513h10.926v.513ZM-67.865.41A6.592,6.592,0,0,1-71.473-.4a4.017,4.017,0,0,1-1.671-2.2,10.534,10.534,0,0,1-.441-3.178V-18.347h-2.6v-.513h6.273V-6.314a28.048,28.048,0,0,0,.154,3.1,4.8,4.8,0,0,0,.7,2.173,1.88,1.88,0,0,0,1.671.8A4.946,4.946,0,0,0-64.288-1.2a6.524,6.524,0,0,0,1.937-2.429,11.915,11.915,0,0,0,.974-3.1A17.652,17.652,0,0,0-61.1-9.676l.328-.144a21.974,21.974,0,0,1-.256,3.147A12.744,12.744,0,0,1-62-3.311,6.655,6.655,0,0,1-64.134-.646,6.085,6.085,0,0,1-67.865.41ZM-61.1,0V-18.347h-2.87v-.513h6.58V-.512h2.583V0Zm13.8-8.938A22.042,22.042,0,0,1-47-12.608a13.076,13.076,0,0,1,1-3.331,6.578,6.578,0,0,1,1.814-2.409,4.156,4.156,0,0,1,2.7-.9,4.043,4.043,0,0,1,1.958.441,3.1,3.1,0,0,1,1.23,1.158,3.029,3.029,0,0,1,.42,1.558,2.628,2.628,0,0,1-.625,1.773,2.162,2.162,0,0,1-1.732.728,2.437,2.437,0,0,1-1.753-.615,2.035,2.035,0,0,1-.646-1.538,2.1,2.1,0,0,1,.758-1.773,2.634,2.634,0,0,1,1.64-.584,2.621,2.621,0,0,1,1.189.266,2.132,2.132,0,0,1,.841.728,1.791,1.791,0,0,1,.307,1.015h-.512a2.334,2.334,0,0,0-.4-1.333,2.859,2.859,0,0,0-1.107-.953,3.508,3.508,0,0,0-1.609-.359,3.738,3.738,0,0,0-2.429.84,6.282,6.282,0,0,0-1.7,2.265,13.563,13.563,0,0,0-1,3.157A18.409,18.409,0,0,0-47-8.938ZM-47-18.86V-.512h2.727V0h-8.958V-.512h2.6V-18.347h-2.6v-.513ZM-20.818.41A5.125,5.125,0,0,1-22.612.1,2.72,2.72,0,0,1-23.954-.974a3.878,3.878,0,0,1-.513-2.163v-9.348a17.553,17.553,0,0,0-.236-2.89,4.752,4.752,0,0,0-1.015-2.337,2.992,2.992,0,0,0-2.419-.923,9.39,9.39,0,0,0-2.071.236,7.87,7.87,0,0,0-1.927.7,4.425,4.425,0,0,0-1.425,1.138,2.418,2.418,0,0,0-.543,1.558H-34.7a2.086,2.086,0,0,1,.687-1.65,2.232,2.232,0,0,1,1.507-.6,2.567,2.567,0,0,1,1.609.564,1.915,1.915,0,0,1,.728,1.609,2.071,2.071,0,0,1-.748,1.784,2.626,2.626,0,0,1-1.589.554,2.305,2.305,0,0,1-1.589-.574,2.131,2.131,0,0,1-.646-1.681,2.7,2.7,0,0,1,.615-1.732,5.09,5.09,0,0,1,1.66-1.312,9.758,9.758,0,0,1,2.368-.84,12.346,12.346,0,0,1,2.716-.3,7.354,7.354,0,0,1,4.223.984A4.673,4.673,0,0,1-21.3-15.682a11.069,11.069,0,0,1,.461,3.2V-2.173a2.61,2.61,0,0,0,.256,1.2,1.09,1.09,0,0,0,1.076.5,2.35,2.35,0,0,0,1.353-.543A3.637,3.637,0,0,0-17-2.44l.246.451A4.521,4.521,0,0,1-18.348-.277,4.428,4.428,0,0,1-20.818.41Zm-9.512,0A6.31,6.31,0,0,1-34.584-.953a4.623,4.623,0,0,1-1.589-3.7,4.831,4.831,0,0,1,2.337-4.274,12.259,12.259,0,0,1,6.7-1.527h4.571V-10h-4.571a4.677,4.677,0,0,0-2.88.81A4.673,4.673,0,0,0-31.57-7.206,6.071,6.071,0,0,0-32.052-4.9a7.573,7.573,0,0,0,.287,2.05,3.83,3.83,0,0,0,.943,1.691A2.309,2.309,0,0,0-29.1-.492a3.85,3.85,0,0,0,2.245-.738,5.2,5.2,0,0,0,1.722-2.286,10.047,10.047,0,0,0,.666-3.946h.307a11.492,11.492,0,0,1-.676,4.11,5.944,5.944,0,0,1-2.04,2.767A5.711,5.711,0,0,1-30.33.41Zm25.851,0L-9.317-30.75h3.936l4.12,25.4,14.207-25.4H13.5L-3.905.41ZM-18.87,0V-.512h6.56V0Zm2.829,0,6.375-30.238H-12.72v-.512h3.69L-15.508,0ZM3.885,0V-.512H13.93V0Zm2.87,0,6.56-30.75H19.67v.512H17.046L10.65,0ZM22.806.41a6.237,6.237,0,0,1-3.321-.83,5.293,5.293,0,0,1-2.05-2.306,7.935,7.935,0,0,1-.7-3.424,13.41,13.41,0,0,1,.861-4.684,14.71,14.71,0,0,1,2.419-4.233,12.325,12.325,0,0,1,3.659-3.054,9.361,9.361,0,0,1,4.561-1.148,4.958,4.958,0,0,1,3.434,1.1,3.507,3.507,0,0,1,1.22,2.716,4.38,4.38,0,0,1-1.148,2.983,9.285,9.285,0,0,1-3.065,2.2,20.571,20.571,0,0,1-4.223,1.425,30.7,30.7,0,0,1-4.643.687V-8.61a23.322,23.322,0,0,0,3.341-.461,12.833,12.833,0,0,0,2.788-.923,7.588,7.588,0,0,0,2.1-1.445,5.948,5.948,0,0,0,1.343-2.03,7.134,7.134,0,0,0,.471-2.685,3.818,3.818,0,0,0-.42-1.8,1.532,1.532,0,0,0-1.486-.8,4.058,4.058,0,0,0-2.224.676,8,8,0,0,0-1.968,1.845,15.844,15.844,0,0,0-1.65,2.634,21.415,21.415,0,0,0-1.261,3.1,23.932,23.932,0,0,0-.8,3.229,17.71,17.71,0,0,0-.277,3.013,4.125,4.125,0,0,0,.953,3.137,3.429,3.429,0,0,0,2.388.861,7.064,7.064,0,0,0,3.147-.7,9.054,9.054,0,0,0,2.573-1.9,12.708,12.708,0,0,0,1.968-2.7l.451.267A12.333,12.333,0,0,1,29.233-2.44,9.628,9.628,0,0,1,26.4-.369,8.149,8.149,0,0,1,22.806.41ZM59.05.41a3.106,3.106,0,0,1-2.317-.728,2.628,2.628,0,0,1-.7-1.9,3.775,3.775,0,0,1,.092-.851q.092-.4.174-.707l2.583-8.856a16.8,16.8,0,0,0,.82-4.346q0-1.537-1.189-1.537a4.063,4.063,0,0,0-2.634,1.138,13.249,13.249,0,0,0-2.511,3.034,27.266,27.266,0,0,0-2.132,4.213A35.245,35.245,0,0,0,49.7-5.453h-.389a40.175,40.175,0,0,1,1.548-4.766,28.742,28.742,0,0,1,2.2-4.479A13.093,13.093,0,0,1,55.822-18a4.944,4.944,0,0,1,3.208-1.25,3.725,3.725,0,0,1,2.706.851,3.343,3.343,0,0,1,.953,2.245,8.753,8.753,0,0,1-.4,3.054L59.03-1.825a2.285,2.285,0,0,0-.092.4,2.839,2.839,0,0,0-.031.4.7.7,0,0,0,.215.533.842.842,0,0,0,.6.205A3.19,3.19,0,0,0,61.6-.9,6.369,6.369,0,0,0,63.284-2.87a22.957,22.957,0,0,0,1.65-3.567l.492.164A23.352,23.352,0,0,1,63.653-2.44,6.35,6.35,0,0,1,61.664-.277,4.824,4.824,0,0,1,59.05.41ZM34.245,0l4.387-18.347H35.885v-.513h6.15L37.525,0ZM45.11,0l3.075-12.628a24.089,24.089,0,0,0,.758-4.366q.062-1.517-1.127-1.517a4.177,4.177,0,0,0-2.665,1.138,13.384,13.384,0,0,0-2.573,3.034,27.39,27.39,0,0,0-2.194,4.213,32.661,32.661,0,0,0-1.568,4.674h-.369a38.008,38.008,0,0,1,1.568-4.766A27.237,27.237,0,0,1,42.292-14.7a13.24,13.24,0,0,1,2.87-3.3,5.232,5.232,0,0,1,3.311-1.25,3.291,3.291,0,0,1,2.491.851,3.558,3.558,0,0,1,.922,2.245,9.56,9.56,0,0,1-.3,3.054L48.37,0Zm27.8.41a5.505,5.505,0,0,1-4.592-1.886,7.252,7.252,0,0,1-1.5-4.653,14.3,14.3,0,0,1,.892-5.063,14.052,14.052,0,0,1,2.429-4.192,11.708,11.708,0,0,1,3.516-2.85,8.834,8.834,0,0,1,4.151-1.035,5.486,5.486,0,0,1,4.6,1.9A7.328,7.328,0,0,1,83.9-12.71,14.3,14.3,0,0,1,83-7.647a14.052,14.052,0,0,1-2.429,4.192A11.569,11.569,0,0,1,77.059-.615,8.9,8.9,0,0,1,72.908.41ZM72.621-.1A3.912,3.912,0,0,0,74.8-.8a8.62,8.62,0,0,0,2.009-1.917,16.894,16.894,0,0,0,1.743-2.778,25.075,25.075,0,0,0,1.374-3.28,24.611,24.611,0,0,0,.9-3.444,17.893,17.893,0,0,0,.318-3.239,3.62,3.62,0,0,0-.738-2.4,2.854,2.854,0,0,0-2.317-.882,3.93,3.93,0,0,0-2.173.7A8.521,8.521,0,0,0,73.9-16.123a16.894,16.894,0,0,0-1.743,2.778,25.075,25.075,0,0,0-1.374,3.28,24.728,24.728,0,0,0-.9,3.434,17.827,17.827,0,0,0-.318,3.249,3.6,3.6,0,0,0,.748,2.388A2.842,2.842,0,0,0,72.621-.1ZM85.044,0l4.572-18.347H86.438v-.513h6.355L88.283,0Zm4.49-6.6q.348-1.579.892-3.321a34.341,34.341,0,0,1,1.261-3.4,19.261,19.261,0,0,1,1.6-2.993,8.554,8.554,0,0,1,1.937-2.132,3.682,3.682,0,0,1,2.265-.8,2.817,2.817,0,0,1,2.05.718,2.339,2.339,0,0,1,.738,1.743,2.568,2.568,0,0,1-.533,1.64,1.819,1.819,0,0,1-1.517.677,2.074,2.074,0,0,1-1.517-.584,2,2,0,0,1-.594-1.486,1.881,1.881,0,0,1,.564-1.384,2.12,2.12,0,0,1,1.568-.564,2.186,2.186,0,0,1,1.415.461,1.508,1.508,0,0,1,.574,1.24h-.471a1.891,1.891,0,0,0-.584-1.384,2.261,2.261,0,0,0-1.671-.584,3.462,3.462,0,0,0-2.163.789,8.508,8.508,0,0,0-1.865,2.091,18.794,18.794,0,0,0-1.538,2.911q-.687,1.609-1.22,3.259T89.841-6.6ZM105.032.41A3.365,3.365,0,0,1,102.674-.3a2.443,2.443,0,0,1-.758-1.876,4.314,4.314,0,0,1,.051-.646q.051-.338.133-.666l4.264-14.862h-3.075v-.513h6.416L104.888-1.783a2.687,2.687,0,0,0-.062.338,2.739,2.739,0,0,0-.021.318,1.007,1.007,0,0,0,.185.6.731.731,0,0,0,.635.256,3.17,3.17,0,0,0,1.907-.625,6.344,6.344,0,0,0,1.65-1.988,26.8,26.8,0,0,0,1.65-3.557l.492.164a23.352,23.352,0,0,1-1.773,3.833,6.5,6.5,0,0,1-1.958,2.163A4.63,4.63,0,0,1,105.032.41Zm4.981-26.425a2.313,2.313,0,0,1-1.23-.338,2.534,2.534,0,0,1-.882-.9,2.422,2.422,0,0,1-.328-1.24,2.422,2.422,0,0,1,.328-1.24,2.451,2.451,0,0,1,.882-.892,2.367,2.367,0,0,1,1.23-.328,2.422,2.422,0,0,1,1.24.328,2.507,2.507,0,0,1,.9.892,2.365,2.365,0,0,1,.338,1.24,2.365,2.365,0,0,1-.338,1.24,2.591,2.591,0,0,1-.9.9A2.365,2.365,0,0,1,110.013-26.015ZM117.455.41a4.478,4.478,0,0,1-3.946-1.773,8.416,8.416,0,0,1-1.24-4.889,12.97,12.97,0,0,1,.882-4.664,16.4,16.4,0,0,1,2.337-4.192,12.9,12.9,0,0,1,3.229-3.024,6.51,6.51,0,0,1,3.536-1.138,3.019,3.019,0,0,1,2.3.84,4.439,4.439,0,0,1,1.087,2.194,14.019,14.019,0,0,1,.287,2.911,16.906,16.906,0,0,1-.277,2.952,20.256,20.256,0,0,1-.81,3.1,19.684,19.684,0,0,1-1.281,2.921,13.058,13.058,0,0,1-1.7,2.46A7.945,7.945,0,0,1,119.8-.2,4.723,4.723,0,0,1,117.455.41Zm.656-.861a3.784,3.784,0,0,0,2.275-.8,8.983,8.983,0,0,0,2.019-2.142,16.065,16.065,0,0,0,1.63-3.024,20.463,20.463,0,0,0,1.086-3.454,15.9,15.9,0,0,0,.39-3.413,12.539,12.539,0,0,0-.267-2.726,4.03,4.03,0,0,0-.882-1.865,2.158,2.158,0,0,0-1.681-.677,3.274,3.274,0,0,0-2.122.9,10,10,0,0,0-1.978,2.409,21.923,21.923,0,0,0-1.65,3.331,23.653,23.653,0,0,0-1.138,3.69,16.206,16.206,0,0,0-.41,3.464,5.732,5.732,0,0,0,.738,3.239A2.3,2.3,0,0,0,118.111-.451Zm8.261.861a2.651,2.651,0,0,1-2.112-.779,2.954,2.954,0,0,1-.676-2.009q0-.349.021-.625a3.991,3.991,0,0,1,.062-.482L124.2-6.5l1-3.116.574-3.547,1.373-5.7h3.465l-4.551,17.1a2.537,2.537,0,0,0-.082.656.928.928,0,0,0,.195.595.776.776,0,0,0,.646.246A3.107,3.107,0,0,0,128.709-.9a6.589,6.589,0,0,0,1.661-2,24.839,24.839,0,0,0,1.64-3.536l.492.164a23.352,23.352,0,0,1-1.773,3.833,6.61,6.61,0,0,1-1.937,2.163A4.305,4.305,0,0,1,126.372.41Z" transform="translate(960 77)" fill="#202a2c"/><path d="M50.312,12.152a14.934,14.934,0,0,0-1.956.18,5.638,5.638,0,0,0-1.352.38,2.019,2.019,0,0,0-.788.572,1.205,1.205,0,0,0-.256.756,1.669,1.669,0,0,0,.132.692,1.353,1.353,0,0,0,.352.48,1.4,1.4,0,0,0,.508.276,2.042,2.042,0,0,0,.6.088,3.41,3.41,0,0,0,.852-.1,3.157,3.157,0,0,0,.72-.28,3.516,3.516,0,0,0,.62-.428q.288-.248.568-.536Zm-4.68-2.984a4.626,4.626,0,0,1,1.312-.944A3.657,3.657,0,0,1,48.5,7.9a2.846,2.846,0,0,1,1.12.2,2.069,2.069,0,0,1,.8.584,2.553,2.553,0,0,1,.476.92,4.231,4.231,0,0,1,.16,1.2V16h-.3a.274.274,0,0,1-.3-.224l-.112-1.024a8.351,8.351,0,0,1-.652.576,3.911,3.911,0,0,1-.676.432,3.47,3.47,0,0,1-.76.272,3.912,3.912,0,0,1-.9.1,2.64,2.64,0,0,1-.792-.12,2,2,0,0,1-.684-.368A1.784,1.784,0,0,1,45.4,15a2.2,2.2,0,0,1-.18-.932,1.655,1.655,0,0,1,.288-.936,2.36,2.36,0,0,1,.9-.752A6,6,0,0,1,48,11.872a13.706,13.706,0,0,1,2.316-.224v-.832a2.666,2.666,0,0,0-.476-1.7,1.7,1.7,0,0,0-1.412-.6,2.665,2.665,0,0,0-.98.16,3.47,3.47,0,0,0-.684.352,4.313,4.313,0,0,0-.456.352.494.494,0,0,1-.3.16.242.242,0,0,1-.144-.04.361.361,0,0,1-.1-.1ZM63.3,9.1a.827.827,0,0,1-.076.068.159.159,0,0,1-.1.028.4.4,0,0,1-.216-.108,2.706,2.706,0,0,0-.368-.236,3.138,3.138,0,0,0-.58-.236,3.242,3.242,0,0,0-2.064.136,2.459,2.459,0,0,0-.9.7,3.118,3.118,0,0,0-.556,1.1,5.223,5.223,0,0,0-.188,1.456,5.146,5.146,0,0,0,.2,1.488A3.169,3.169,0,0,0,59,14.6a2.368,2.368,0,0,0,.872.676,2.721,2.721,0,0,0,1.136.232,2.943,2.943,0,0,0,.964-.136,3.142,3.142,0,0,0,.64-.3,2.668,2.668,0,0,0,.4-.3.4.4,0,0,1,.24-.136.2.2,0,0,1,.16.08l.2.256a2.327,2.327,0,0,1-.464.448,3.147,3.147,0,0,1-.632.36,3.875,3.875,0,0,1-.764.236,4.3,4.3,0,0,1-.86.084,3.413,3.413,0,0,1-1.388-.276,3.009,3.009,0,0,1-1.08-.8,3.743,3.743,0,0,1-.7-1.284,5.48,5.48,0,0,1-.252-1.728,5.453,5.453,0,0,1,.24-1.664,3.708,3.708,0,0,1,.7-1.3,3.179,3.179,0,0,1,1.132-.844,3.7,3.7,0,0,1,1.532-.3,3.578,3.578,0,0,1,1.376.248,3.394,3.394,0,0,1,1.048.672ZM71.664,8.04V16H71.24a.215.215,0,0,1-.232-.208l-.072-1.184a4.512,4.512,0,0,1-1.276,1.1,3.177,3.177,0,0,1-1.612.416,2.983,2.983,0,0,1-1.16-.208,2.128,2.128,0,0,1-.824-.6,2.656,2.656,0,0,1-.5-.944,4.283,4.283,0,0,1-.168-1.248V8.04h.768v5.088a2.727,2.727,0,0,0,.512,1.756,1.883,1.883,0,0,0,1.56.636,2.824,2.824,0,0,0,1.452-.4,4.1,4.1,0,0,0,1.2-1.1V8.04Zm3.344,1.92a4.958,4.958,0,0,1,.42-.868,2.751,2.751,0,0,1,.544-.644,2.238,2.238,0,0,1,.688-.4A2.426,2.426,0,0,1,77.5,7.9a2.7,2.7,0,0,1,.488.044,1.236,1.236,0,0,1,.424.156l-.064.528a.154.154,0,0,1-.152.128,1.186,1.186,0,0,1-.292-.056,1.935,1.935,0,0,0-.516-.056,2.229,2.229,0,0,0-.82.14,1.891,1.891,0,0,0-.64.42,2.69,2.69,0,0,0-.5.692,6.528,6.528,0,0,0-.388.948V16H74.28V8.04h.408a.266.266,0,0,1,.192.056.322.322,0,0,1,.072.192Zm9.216,2.192a14.934,14.934,0,0,0-1.956.18,5.638,5.638,0,0,0-1.352.38,2.019,2.019,0,0,0-.788.572,1.205,1.205,0,0,0-.256.756,1.669,1.669,0,0,0,.132.692,1.353,1.353,0,0,0,.352.48,1.4,1.4,0,0,0,.508.276,2.042,2.042,0,0,0,.6.088,3.41,3.41,0,0,0,.852-.1,3.157,3.157,0,0,0,.72-.28,3.515,3.515,0,0,0,.62-.428q.288-.248.568-.536Zm-4.68-2.984a4.626,4.626,0,0,1,1.312-.944,3.657,3.657,0,0,1,1.56-.32,2.846,2.846,0,0,1,1.12.2,2.069,2.069,0,0,1,.8.584,2.553,2.553,0,0,1,.476.92,4.231,4.231,0,0,1,.16,1.2V16h-.3a.274.274,0,0,1-.3-.224l-.112-1.024a8.352,8.352,0,0,1-.652.576,3.911,3.911,0,0,1-.676.432,3.47,3.47,0,0,1-.76.272,3.912,3.912,0,0,1-.9.1,2.64,2.64,0,0,1-.792-.12,2,2,0,0,1-.684-.368,1.784,1.784,0,0,1-.48-.636,2.2,2.2,0,0,1-.18-.932,1.655,1.655,0,0,1,.288-.936,2.36,2.36,0,0,1,.9-.752,6,6,0,0,1,1.58-.512,13.706,13.706,0,0,1,2.316-.224v-.832a2.666,2.666,0,0,0-.476-1.7,1.7,1.7,0,0,0-1.412-.6,2.665,2.665,0,0,0-.98.16,3.47,3.47,0,0,0-.684.352,4.312,4.312,0,0,0-.456.352.494.494,0,0,1-.3.16.242.242,0,0,1-.144-.04.361.361,0,0,1-.1-.1Zm17.744.584a2.725,2.725,0,0,0-1.012-.968,3.051,3.051,0,0,0-2.5-.024,2.425,2.425,0,0,0-.884.724,3.262,3.262,0,0,0-.536,1.12,5.387,5.387,0,0,0-.18,1.436,4.242,4.242,0,0,0,.652,2.612,2.246,2.246,0,0,0,1.884.836,2.634,2.634,0,0,0,1.432-.408,3.893,3.893,0,0,0,1.144-1.144Zm.76-5.392V16h-.416a.219.219,0,0,1-.24-.208l-.08-1.256A4.238,4.238,0,0,1,96.08,15.68,3.01,3.01,0,0,1,94.5,16.1a2.769,2.769,0,0,1-2.288-1.016,4.8,4.8,0,0,1-.816-3.048,5.613,5.613,0,0,1,.228-1.628A3.907,3.907,0,0,1,92.288,9.1a3.154,3.154,0,0,1,1.084-.876,3.293,3.293,0,0,1,1.484-.32,3.1,3.1,0,0,1,1.4.3,2.932,2.932,0,0,1,1.032.88V4.36Zm3.472,3.68V16h-.76V8.04Zm.328-2.744a.607.607,0,0,1-.06.268.8.8,0,0,1-.156.22.724.724,0,0,1-.224.152.689.689,0,0,1-.544,0,.724.724,0,0,1-.224-.152.738.738,0,0,1-.152-.22.644.644,0,0,1-.056-.268.7.7,0,0,1,.056-.276.711.711,0,0,1,.152-.228.724.724,0,0,1,.224-.152.689.689,0,0,1,.544,0,.724.724,0,0,1,.224.152.769.769,0,0,1,.156.228A.66.66,0,0,1,101.848,5.3Zm7.912.064v4.76h5.16v.68h-5.16V16h-.824V4.68h6.784v.68ZM126.7,4.68V16h-.384a.365.365,0,0,1-.172-.036.406.406,0,0,1-.132-.124l-7.352-9.824q.024.24.024.456V16h-.72V4.68h.408a.419.419,0,0,1,.172.028.393.393,0,0,1,.132.124l7.336,9.8q-.024-.24-.024-.456V4.68Zm13.4,5.656a6.866,6.866,0,0,1-.392,2.38,5.273,5.273,0,0,1-1.1,1.824,4.874,4.874,0,0,1-1.708,1.168,6.048,6.048,0,0,1-4.388,0,4.882,4.882,0,0,1-1.7-1.168,5.273,5.273,0,0,1-1.1-1.824,6.866,6.866,0,0,1-.392-2.38,6.841,6.841,0,0,1,.392-2.372,5.273,5.273,0,0,1,1.1-1.824,4.928,4.928,0,0,1,1.7-1.172,5.614,5.614,0,0,1,2.192-.416,5.691,5.691,0,0,1,2.2.412,4.848,4.848,0,0,1,1.708,1.172,5.316,5.316,0,0,1,1.1,1.828A6.841,6.841,0,0,1,140.1,10.336Zm-.848,0a6.459,6.459,0,0,0-.328-2.128,4.547,4.547,0,0,0-.928-1.6,4,4,0,0,0-1.44-1,5.1,5.1,0,0,0-3.7,0,4.038,4.038,0,0,0-1.444,1,4.562,4.562,0,0,0-.936,1.6,6.388,6.388,0,0,0-.332,2.128,6.379,6.379,0,0,0,.332,2.132,4.568,4.568,0,0,0,.936,1.6,4,4,0,0,0,1.444,1,5.157,5.157,0,0,0,3.7,0,3.958,3.958,0,0,0,1.44-1,4.553,4.553,0,0,0,.928-1.6A6.45,6.45,0,0,0,139.256,10.336Zm6.384.448a4.014,4.014,0,0,0,1.336-.208,2.959,2.959,0,0,0,1-.576,2.5,2.5,0,0,0,.632-.868,2.682,2.682,0,0,0,.22-1.092,2.533,2.533,0,0,0-.8-2.008,3.529,3.529,0,0,0-2.392-.7h-2.1v5.456Zm0-6.1a4.492,4.492,0,0,1,3,.872,3.106,3.106,0,0,1,1.012,2.488,3.3,3.3,0,0,1-.28,1.368,3.082,3.082,0,0,1-.8,1.076,3.72,3.72,0,0,1-1.264.7,5.193,5.193,0,0,1-1.672.252h-2.1V16h-.824V4.68ZM152.784,16h-.824V4.68h.824Z" transform="translate(861 93)" fill="#202a2c"/></g></svg>