<svg xmlns="http://www.w3.org/2000/svg" xmlns:xlink="http://www.w3.org/1999/xlink" width="323.625" height="28.423" viewBox="0 0 323.625 28.423"><defs><clipPath id="a"><rect width="323.625" height="28.423" fill="none"/></clipPath></defs><g clip-path="url(#a)"><path d="M316.644,8.36v.348h1.825V20.83h-1.825v.348h6.98V20.83h-1.811V8.36ZM321.632,3.6a2.031,2.031,0,0,0,.6-1.484,2.031,2.031,0,0,0-.6-1.484,2.12,2.12,0,0,0-2.968,0,2.006,2.006,0,0,0-.613,1.484,2.012,2.012,0,0,0,.613,1.477,2.111,2.111,0,0,0,2.968.007m-8.785,6.514a2.757,2.757,0,0,0-1.156-1.491,4.535,4.535,0,0,0-2.445-.543,4.064,4.064,0,0,0-2.473.7,4.693,4.693,0,0,0-1.47,1.783,8.217,8.217,0,0,0-.7,2.271,14.078,14.078,0,0,0-.188,2.181l.251-.07a11.307,11.307,0,0,1,.188-1.985,8.173,8.173,0,0,1,.613-1.979A4.176,4.176,0,0,1,306.6,9.474a2.67,2.67,0,0,1,1.755-.585,1.124,1.124,0,0,1,.968.425,2.673,2.673,0,0,1,.418,1.247,16.158,16.158,0,0,1,.1,1.992V20.83h-1.56v.348h6.7V20.83h-1.825V12.275a6.862,6.862,0,0,0-.313-2.159M299.521,8.36v.348h1.825V20.83h-1.825v.348h6.7V20.83h-1.561V8.36Zm-8.777,12.435a4.079,4.079,0,0,0,1.456-1.86,7.342,7.342,0,0,0,.495-2.814h-.223a6.589,6.589,0,0,1-.383,2.431,3.234,3.234,0,0,1-.989,1.414,2.115,2.115,0,0,1-1.3.46,1.362,1.362,0,0,1-1.017-.4,2.309,2.309,0,0,1-.564-1.017,4.79,4.79,0,0,1-.174-1.3,4.082,4.082,0,0,1,.3-1.491,3.07,3.07,0,0,1,.975-1.3,2.82,2.82,0,0,1,1.8-.536h2.647v-.307h-3.2a8.407,8.407,0,0,0-4.57,1.038,3.277,3.277,0,0,0-1.6,2.9,3.142,3.142,0,0,0,1.08,2.515,4.288,4.288,0,0,0,2.891.926,4.1,4.1,0,0,0,2.383-.662m6.646.188a2.783,2.783,0,0,0,1.254-1.282l-.2-.251a2.3,2.3,0,0,1-.829.975,1.754,1.754,0,0,1-.9.334.787.787,0,0,1-.738-.328,1.537,1.537,0,0,1-.2-.8V12.693a5.46,5.46,0,0,0-.467-2.264,3.568,3.568,0,0,0-1.609-1.665,6.7,6.7,0,0,0-3.191-.627,9.294,9.294,0,0,0-1.867.188,6.883,6.883,0,0,0-1.658.55,3.448,3.448,0,0,0-1.184.913,1.967,1.967,0,0,0-.446,1.275,1.622,1.622,0,0,0,.557,1.317,2.073,2.073,0,0,0,1.379.467,2.3,2.3,0,0,0,1.386-.453,1.6,1.6,0,0,0,.62-1.386,1.5,1.5,0,0,0-.606-1.282,2.3,2.3,0,0,0-1.4-.446,2.012,2.012,0,0,0-1.324.488,1.6,1.6,0,0,0-.585,1.3h.4a1.747,1.747,0,0,1,.39-1.136,3.028,3.028,0,0,1,1.017-.794,5.615,5.615,0,0,1,1.345-.467,6.515,6.515,0,0,1,1.358-.153,2.1,2.1,0,0,1,1.665.627,3.224,3.224,0,0,1,.724,1.588,11,11,0,0,1,.174,1.965v6.326a2.4,2.4,0,0,0,.39,1.442,2.127,2.127,0,0,0,1.045.766,4.349,4.349,0,0,0,1.449.23,4.219,4.219,0,0,0,2.034-.474M280.307,10.115a2.99,2.99,0,0,0-1.156-1.491,3.929,3.929,0,0,0-2.215-.543,3.667,3.667,0,0,0-2.32.69,4.371,4.371,0,0,0-1.345,1.769,8.737,8.737,0,0,0-.62,2.264,16.292,16.292,0,0,0-.16,2.173l.223-.07a12.63,12.63,0,0,1,.167-1.992,9.253,9.253,0,0,1,.536-1.971,4.084,4.084,0,0,1,.989-1.5,2.135,2.135,0,0,1,1.512-.578,1.041,1.041,0,0,1,.913.425,2.789,2.789,0,0,1,.4,1.247,16.111,16.111,0,0,1,.1,1.992v8.3h-1.533v.348h6.66V20.83h-1.811V12.275a6.234,6.234,0,0,0-.348-2.159m-7.928,0a2.94,2.94,0,0,0-1.128-1.491,3.831,3.831,0,0,0-2.188-.543,3.667,3.667,0,0,0-2.32.69,4.543,4.543,0,0,0-1.365,1.769,8.62,8.62,0,0,0-.655,2.264,15.012,15.012,0,0,0-.174,2.173l.223-.07a12.12,12.12,0,0,1,.174-1.992,8.774,8.774,0,0,1,.564-1.971,4.253,4.253,0,0,1,1.017-1.5,2.142,2.142,0,0,1,1.5-.578,1.006,1.006,0,0,1,.9.425,2.813,2.813,0,0,1,.376,1.247,18.623,18.623,0,0,1,.091,1.992v8.3h-1.519v.348h6.353V20.83h-1.519V12.275a6.466,6.466,0,0,0-.334-2.159M259.631,8.36v.348h1.825V20.83h-1.825v.348h6.66V20.83h-1.519V8.36Zm-10.08,12.2a3.7,3.7,0,0,1-.906-1.477,9.2,9.2,0,0,1-.453-2.055,20.45,20.45,0,0,1,0-4.521,9.2,9.2,0,0,1,.453-2.048,3.7,3.7,0,0,1,.906-1.477,2.083,2.083,0,0,1,1.5-.55,2.107,2.107,0,0,1,1.5.55,3.6,3.6,0,0,1,.906,1.477A9.488,9.488,0,0,1,253.9,12.5a20.443,20.443,0,0,1,0,4.521,9.487,9.487,0,0,1-.446,2.055,3.6,3.6,0,0,1-.906,1.477,2.107,2.107,0,0,1-1.5.55,2.083,2.083,0,0,1-1.5-.55m5.03-.021a6.316,6.316,0,0,0,2.292-2.438,7.264,7.264,0,0,0,0-6.66A6.317,6.317,0,0,0,254.581,9a7.243,7.243,0,0,0-7.064,0,6.314,6.314,0,0,0-2.292,2.438,7.264,7.264,0,0,0,0,6.66,6.313,6.313,0,0,0,2.292,2.438,7.243,7.243,0,0,0,7.064,0M232.1,20.126a4.618,4.618,0,0,1-.913-2.055,15.431,15.431,0,0,1-.3-3.288,15.635,15.635,0,0,1,.3-3.3A4.688,4.688,0,0,1,232.1,9.4a1.941,1.941,0,0,1,1.533-.711,2.74,2.74,0,0,1,1.769.69,4.837,4.837,0,0,1,1.359,2.048,9.388,9.388,0,0,1,.523,3.351,9.282,9.282,0,0,1-.523,3.33,4.781,4.781,0,0,1-1.359,2.034,2.756,2.756,0,0,1-1.769.683,1.948,1.948,0,0,1-1.533-.7m3.706.091a6.417,6.417,0,0,0,1.477-3.427v4.389h5.169V20.83h-1.811V.279h-5.169V.627h1.811V12.776a6.5,6.5,0,0,0-1.477-3.441,3.743,3.743,0,0,0-2.9-1.24,5.407,5.407,0,0,0-2.835.8,6.058,6.058,0,0,0-2.167,2.3,7.254,7.254,0,0,0-.836,3.588,7.214,7.214,0,0,0,.836,3.581,6.015,6.015,0,0,0,2.167,2.285,5.443,5.443,0,0,0,2.835.794,3.762,3.762,0,0,0,2.9-1.226m-19.959.063a6,6,0,0,0,1.985-2.947h-.376a5.553,5.553,0,0,1-1.8,2.64,4.912,4.912,0,0,1-3.212,1.052,2.649,2.649,0,0,1-1.679-.516,3.318,3.318,0,0,1-1.024-1.407,8.148,8.148,0,0,1-.509-2.055,19.574,19.574,0,0,1-.146-2.445,20.337,20.337,0,0,1,.125-2.3,9.15,9.15,0,0,1,.432-1.979,3.385,3.385,0,0,1,.85-1.386,1.92,1.92,0,0,1,1.365-.509,1.545,1.545,0,0,1,1.2.488,3.055,3.055,0,0,1,.662,1.261,8.392,8.392,0,0,1,.279,1.672q.063.9.063,1.721h-6.841v.348h10.506a6.728,6.728,0,0,0-.613-2.849,5.045,5.045,0,0,0-1.9-2.16,6.1,6.1,0,0,0-3.351-.829,7.02,7.02,0,0,0-3.365.787,5.673,5.673,0,0,0-2.306,2.278,7.305,7.305,0,0,0-.836,3.623,7.067,7.067,0,0,0,.871,3.623,5.848,5.848,0,0,0,2.369,2.278,7.181,7.181,0,0,0,3.393.787,5.929,5.929,0,0,0,3.866-1.177M196.4,4a2.245,2.245,0,0,0,.759-.773,2,2,0,0,0,.286-1.038,1.987,1.987,0,0,0-.286-1.045A2.206,2.206,0,0,0,196.4.383a2.105,2.105,0,0,0-2.118,0,2.086,2.086,0,0,0-.745.759,2.063,2.063,0,0,0-.272,1.045,2.075,2.075,0,0,0,.272,1.038,2.123,2.123,0,0,0,.745.773A2.062,2.062,0,0,0,196.4,4M193.84,20.962a4.713,4.713,0,0,0,1.442-1.512,16.189,16.189,0,0,0,1.289-2.605l-.334-.111a17.325,17.325,0,0,1-1.226,2.466,4.4,4.4,0,0,1-1.115,1.282,1.919,1.919,0,0,1-1.1.376.388.388,0,0,1-.348-.146.6.6,0,0,1-.1-.342,1.966,1.966,0,0,1,.014-.23,1.778,1.778,0,0,1,.042-.23l3.2-11.55h-5.141v.348H192.5l-2.745,9.767q-.056.223-.111.516a3.19,3.19,0,0,0-.056.6,1.739,1.739,0,0,0,.564,1.358,2.651,2.651,0,0,0,1.8.509,3.486,3.486,0,0,0,1.881-.495M184.631,8.987a7.1,7.1,0,0,0-1.616,2.313l.251.139a9.337,9.337,0,0,1,.954-1.575,3.645,3.645,0,0,1,1.073-.968,2.463,2.463,0,0,1,1.233-.327,1.722,1.722,0,0,1,1.01.307,1.377,1.377,0,0,1,.564.85,1.119,1.119,0,0,0-.467-.564,1.544,1.544,0,0,0-.7-.23,1.579,1.579,0,0,0-.947.439,1.31,1.31,0,0,0-.4,1,1.4,1.4,0,0,0,.46,1.094,1.576,1.576,0,0,0,1.087.411,1.417,1.417,0,0,0,1.143-.495,1.784,1.784,0,0,0,.418-1.191,1.845,1.845,0,0,0-.585-1.428,2.065,2.065,0,0,0-1.449-.536,2.982,2.982,0,0,0-2.02.766m-6.967,6.883a2.134,2.134,0,0,1-.32-1.2,6,6,0,0,1,.2-1.414,11.477,11.477,0,0,1,.55-1.651,10.807,10.807,0,0,1,.794-1.554,5.323,5.323,0,0,1,.934-1.156,1.457,1.457,0,0,1,.961-.439,1.122,1.122,0,0,1,1.01.474,2.1,2.1,0,0,1,.314,1.184,5.965,5.965,0,0,1-.2,1.421,11.919,11.919,0,0,1-.55,1.651,11,11,0,0,1-.794,1.567,5.269,5.269,0,0,1-.934,1.163,1.457,1.457,0,0,1-.961.439,1.114,1.114,0,0,1-1-.488m4.264.23a5.6,5.6,0,0,0,2.132-1.686,3.858,3.858,0,0,0,.808-2.389,3.7,3.7,0,0,0-.578-2.069,3.863,3.863,0,0,0-1.581-1.372,5.162,5.162,0,0,0-2.285-.488,6.529,6.529,0,0,0-2.884.648,5.7,5.7,0,0,0-2.146,1.742,4,4,0,0,0-.808,2.431,3.529,3.529,0,0,0,.578,2.034,3.748,3.748,0,0,0,1.588,1.31,5.438,5.438,0,0,0,2.278.46,6.745,6.745,0,0,0,2.9-.62m-2.919,11.947a9.932,9.932,0,0,0,2.766-1.136,6.212,6.212,0,0,0,2.006-1.9,4.729,4.729,0,0,0,.752-2.661,2.779,2.779,0,0,0-1.094-2.515,4.947,4.947,0,0,0-2.766-.717q-.39,0-1.073.007l-1.386.014q-.7.007-1.191.007a7.048,7.048,0,0,1-1.268-.112,2.345,2.345,0,0,1-1-.4,1,1,0,0,1-.39-.85,1.514,1.514,0,0,1,.7-1.149,3.307,3.307,0,0,1,2.076-.55l.014-.209a8.6,8.6,0,0,0-1.986.223,6.258,6.258,0,0,0-1.672.641,3.539,3.539,0,0,0-1.149,1,2.221,2.221,0,0,0-.418,1.324,2.182,2.182,0,0,0,.544,1.477,3.483,3.483,0,0,0,1.5.968,6.548,6.548,0,0,0,2.208.342h5.573a2.467,2.467,0,0,1,1.428.355,1.3,1.3,0,0,1,.509,1.149,3.086,3.086,0,0,1-.585,1.79,5.443,5.443,0,0,1-1.623,1.491,8.764,8.764,0,0,1-2.4,1.01,11.128,11.128,0,0,1-2.877.362,3.768,3.768,0,0,1-2.584-.759,2.729,2.729,0,0,1-.843-2.139,4.193,4.193,0,0,1,.341-1.7,3.56,3.56,0,0,1,.94-1.3,2.843,2.843,0,0,1,1.379-.655H175a4.66,4.66,0,0,0-1.54.286,6.427,6.427,0,0,0-1.533.78,4.523,4.523,0,0,0-1.171,1.149,2.429,2.429,0,0,0-.453,1.407,2.706,2.706,0,0,0,.6,1.721,3.911,3.911,0,0,0,1.867,1.191,10.139,10.139,0,0,0,3.218.432,12.446,12.446,0,0,0,3.017-.376M167.856,8.987A7.1,7.1,0,0,0,166.24,11.3l.251.139a9.337,9.337,0,0,1,.954-1.575,3.645,3.645,0,0,1,1.073-.968,2.463,2.463,0,0,1,1.233-.327,1.722,1.722,0,0,1,1.01.307,1.377,1.377,0,0,1,.564.85,1.119,1.119,0,0,0-.467-.564,1.543,1.543,0,0,0-.7-.23,1.579,1.579,0,0,0-.947.439,1.31,1.31,0,0,0-.4,1,1.4,1.4,0,0,0,.46,1.094,1.576,1.576,0,0,0,1.087.411,1.417,1.417,0,0,0,1.143-.495,1.784,1.784,0,0,0,.418-1.191,1.845,1.845,0,0,0-.585-1.428,2.065,2.065,0,0,0-1.449-.536,2.982,2.982,0,0,0-2.02.766M160.89,15.87a2.134,2.134,0,0,1-.32-1.2,6,6,0,0,1,.2-1.414,11.475,11.475,0,0,1,.55-1.651,10.807,10.807,0,0,1,.794-1.554,5.322,5.322,0,0,1,.934-1.156,1.456,1.456,0,0,1,.961-.439,1.122,1.122,0,0,1,1.01.474,2.1,2.1,0,0,1,.314,1.184,5.965,5.965,0,0,1-.2,1.421,11.915,11.915,0,0,1-.55,1.651,11,11,0,0,1-.794,1.567,5.27,5.27,0,0,1-.934,1.163,1.457,1.457,0,0,1-.961.439,1.114,1.114,0,0,1-1-.488m4.264.23a5.6,5.6,0,0,0,2.132-1.686,3.858,3.858,0,0,0,.808-2.389,3.7,3.7,0,0,0-.578-2.069,3.863,3.863,0,0,0-1.581-1.372,5.162,5.162,0,0,0-2.285-.488,6.529,6.529,0,0,0-2.884.648,5.7,5.7,0,0,0-2.146,1.742,4,4,0,0,0-.808,2.431,3.527,3.527,0,0,0,.578,2.034,3.748,3.748,0,0,0,1.588,1.31,5.438,5.438,0,0,0,2.278.46,6.745,6.745,0,0,0,2.9-.62m-2.919,11.947A9.933,9.933,0,0,0,165,26.911a6.212,6.212,0,0,0,2.006-1.9,4.729,4.729,0,0,0,.752-2.661,2.779,2.779,0,0,0-1.094-2.515,4.947,4.947,0,0,0-2.766-.717q-.39,0-1.073.007l-1.386.014q-.7.007-1.191.007a7.048,7.048,0,0,1-1.268-.112,2.345,2.345,0,0,1-1-.4,1,1,0,0,1-.39-.85,1.514,1.514,0,0,1,.7-1.149,3.307,3.307,0,0,1,2.076-.55l.014-.209a8.6,8.6,0,0,0-1.986.223,6.261,6.261,0,0,0-1.672.641,3.539,3.539,0,0,0-1.149,1,2.221,2.221,0,0,0-.418,1.324,2.182,2.182,0,0,0,.543,1.477,3.484,3.484,0,0,0,1.5.968,6.548,6.548,0,0,0,2.208.342h5.573a2.467,2.467,0,0,1,1.428.355,1.3,1.3,0,0,1,.509,1.149,3.086,3.086,0,0,1-.585,1.79,5.443,5.443,0,0,1-1.623,1.491,8.764,8.764,0,0,1-2.4,1.01,11.128,11.128,0,0,1-2.877.362,3.768,3.768,0,0,1-2.585-.759A2.73,2.73,0,0,1,156,25.107a4.193,4.193,0,0,1,.341-1.7,3.56,3.56,0,0,1,.94-1.3,2.843,2.843,0,0,1,1.379-.655h-.432a4.66,4.66,0,0,0-1.54.286,6.426,6.426,0,0,0-1.533.78,4.52,4.52,0,0,0-1.17,1.149,2.428,2.428,0,0,0-.453,1.407,2.706,2.706,0,0,0,.6,1.721A3.911,3.911,0,0,0,156,27.991a10.139,10.139,0,0,0,3.218.432,12.446,12.446,0,0,0,3.017-.376m-17.4-7.426a2.085,2.085,0,0,1-.383-1.324,11.884,11.884,0,0,1,.216-2.146,19.674,19.674,0,0,1,.606-2.4,20.935,20.935,0,0,1,.906-2.355,14.165,14.165,0,0,1,1.115-2.02,6.5,6.5,0,0,1,1.247-1.421,2.043,2.043,0,0,1,1.289-.529,1.419,1.419,0,0,1,1.2.488,2.115,2.115,0,0,1,.376,1.324,12.013,12.013,0,0,1-.216,2.153,19.317,19.317,0,0,1-.606,2.4,21.23,21.23,0,0,1-.906,2.348,14.559,14.559,0,0,1-1.115,2.027,6.385,6.385,0,0,1-1.24,1.421,2.046,2.046,0,0,1-1.3.522,1.421,1.421,0,0,1-1.191-.488m4.424.118a8.308,8.308,0,0,0,2.557-1.971,9.627,9.627,0,0,0,1.742-2.856,9.085,9.085,0,0,0,.634-3.372,4.535,4.535,0,0,0-1.149-3.232,4.392,4.392,0,0,0-3.365-1.226,6.623,6.623,0,0,0-3.023.724,8.548,8.548,0,0,0-2.55,1.979,9.611,9.611,0,0,0-1.755,2.87,9.136,9.136,0,0,0-.641,3.4,4.466,4.466,0,0,0,1.136,3.2,4.381,4.381,0,0,0,3.337,1.2,6.848,6.848,0,0,0,3.079-.718M128.418,8.36v.348h1.825V20.83h-1.825v.348h6.98V20.83h-1.811V8.36ZM133.406,3.6a2.03,2.03,0,0,0,.6-1.484,2.03,2.03,0,0,0-.6-1.484,2.12,2.12,0,0,0-2.968,0,2.006,2.006,0,0,0-.613,1.484,2.012,2.012,0,0,0,.613,1.477,2.111,2.111,0,0,0,2.968.007M115.224,8.36v.348h1.825V20.83h-1.825v.348h7.148V20.83h-2.006V8.36Zm5.141,6.771a13.291,13.291,0,0,1,.23-2.508,8.622,8.622,0,0,1,.69-2.146,4.071,4.071,0,0,1,1.171-1.491,2.672,2.672,0,0,1,1.672-.543,2.588,2.588,0,0,1,1.3.313,2.248,2.248,0,0,1,.85.829,2.156,2.156,0,0,1,.3,1.1h.334a1.636,1.636,0,0,0-.258-.885,1.9,1.9,0,0,0-.718-.662,2.117,2.117,0,0,0-1.031-.251,2.065,2.065,0,0,0-1.449.55,1.916,1.916,0,0,0-.6,1.484,1.79,1.79,0,0,0,.564,1.331,2.052,2.052,0,0,0,1.5.55,1.859,1.859,0,0,0,1.47-.627,2.185,2.185,0,0,0,.55-1.491,2.611,2.611,0,0,0-.32-1.261,2.494,2.494,0,0,0-.94-.961,2.907,2.907,0,0,0-1.512-.369,3.016,3.016,0,0,0-1.874.585,4.2,4.2,0,0,0-1.247,1.581,8.455,8.455,0,0,0-.683,2.257,15.959,15.959,0,0,0-.209,2.612ZM111.4,20.279a6,6,0,0,0,1.985-2.947h-.376a5.552,5.552,0,0,1-1.8,2.64,4.912,4.912,0,0,1-3.212,1.052,2.648,2.648,0,0,1-1.679-.516A3.318,3.318,0,0,1,105.29,19.1a8.164,8.164,0,0,1-.509-2.055,19.614,19.614,0,0,1-.146-2.445,20.291,20.291,0,0,1,.125-2.3,9.136,9.136,0,0,1,.432-1.979,3.386,3.386,0,0,1,.85-1.386,1.921,1.921,0,0,1,1.365-.509,1.544,1.544,0,0,1,1.2.488,3.051,3.051,0,0,1,.662,1.261,8.378,8.378,0,0,1,.279,1.672q.062.9.063,1.721h-6.841v.348h10.505a6.728,6.728,0,0,0-.613-2.849,5.044,5.044,0,0,0-1.9-2.16,6.1,6.1,0,0,0-3.351-.829,7.019,7.019,0,0,0-3.365.787,5.671,5.671,0,0,0-2.306,2.278,7.305,7.305,0,0,0-.836,3.623,7.069,7.069,0,0,0,.871,3.623,5.85,5.85,0,0,0,2.369,2.278,7.182,7.182,0,0,0,3.393.787,5.928,5.928,0,0,0,3.866-1.177M91.942,8.36v.348h1.825V20.83H91.942v.348h6.98V20.83H97.111V8.36ZM96.93,3.6a2.03,2.03,0,0,0,.6-1.484,2.03,2.03,0,0,0-.6-1.484,2.12,2.12,0,0,0-2.968,0,2.006,2.006,0,0,0-.613,1.484,2.012,2.012,0,0,0,.613,1.477A2.111,2.111,0,0,0,96.93,3.6m-8.819,6.514a2.991,2.991,0,0,0-1.157-1.491,3.928,3.928,0,0,0-2.215-.543,3.667,3.667,0,0,0-2.32.69,4.371,4.371,0,0,0-1.345,1.769,8.746,8.746,0,0,0-.62,2.264,16.287,16.287,0,0,0-.16,2.173l.223-.07a12.629,12.629,0,0,1,.167-1.992,9.251,9.251,0,0,1,.536-1.971,4.084,4.084,0,0,1,.989-1.5,2.135,2.135,0,0,1,1.512-.578,1.041,1.041,0,0,1,.913.425,2.791,2.791,0,0,1,.4,1.247,16.152,16.152,0,0,1,.1,1.992v8.3H83.611v.348h6.66V20.83H88.459V12.275a6.239,6.239,0,0,0-.348-2.159m-7.928,0a2.94,2.94,0,0,0-1.128-1.491,3.831,3.831,0,0,0-2.188-.543,3.667,3.667,0,0,0-2.32.69,4.544,4.544,0,0,0-1.365,1.769,8.628,8.628,0,0,0-.655,2.264,15.012,15.012,0,0,0-.174,2.173l.223-.07a12.115,12.115,0,0,1,.174-1.992,8.772,8.772,0,0,1,.564-1.971,4.253,4.253,0,0,1,1.017-1.5,2.142,2.142,0,0,1,1.5-.578,1.006,1.006,0,0,1,.9.425,2.812,2.812,0,0,1,.376,1.247,18.617,18.617,0,0,1,.091,1.992v8.3H75.683v.348h6.353V20.83H80.517V12.275a6.466,6.466,0,0,0-.334-2.159M67.434,8.36v.348H69.26V20.83H67.434v.348h6.66V20.83H72.576V8.36Zm-13.055,0v.348H56.2V20.83H54.379v.348h7.148V20.83H59.521V8.36Zm5.141,6.771a13.289,13.289,0,0,1,.23-2.508,8.622,8.622,0,0,1,.69-2.146,4.071,4.071,0,0,1,1.17-1.491,2.673,2.673,0,0,1,1.672-.543,2.588,2.588,0,0,1,1.3.313,2.246,2.246,0,0,1,.85.829,2.155,2.155,0,0,1,.3,1.1h.334a1.638,1.638,0,0,0-.258-.885,1.9,1.9,0,0,0-.718-.662,2.117,2.117,0,0,0-1.031-.251,2.065,2.065,0,0,0-1.449.55,1.917,1.917,0,0,0-.6,1.484,1.791,1.791,0,0,0,.564,1.331,2.053,2.053,0,0,0,1.5.55,1.859,1.859,0,0,0,1.47-.627,2.185,2.185,0,0,0,.55-1.491,2.609,2.609,0,0,0-.32-1.261,2.492,2.492,0,0,0-.94-.961A2.906,2.906,0,0,0,63.324,8.1a3.015,3.015,0,0,0-1.874.585A4.2,4.2,0,0,0,60.2,10.262a8.455,8.455,0,0,0-.683,2.257,15.96,15.96,0,0,0-.209,2.612Zm-8.966,5.148a6,6,0,0,0,1.985-2.947h-.376a5.552,5.552,0,0,1-1.8,2.64,4.912,4.912,0,0,1-3.212,1.052,2.648,2.648,0,0,1-1.679-.516A3.316,3.316,0,0,1,44.445,19.1a8.157,8.157,0,0,1-.509-2.055,19.579,19.579,0,0,1-.146-2.445,20.293,20.293,0,0,1,.126-2.3,9.137,9.137,0,0,1,.432-1.979,3.382,3.382,0,0,1,.85-1.386,1.921,1.921,0,0,1,1.365-.509,1.545,1.545,0,0,1,1.2.488,3.053,3.053,0,0,1,.662,1.261A8.378,8.378,0,0,1,48.7,11.85q.063.9.063,1.721H41.924v.348H52.429a6.728,6.728,0,0,0-.613-2.849,5.044,5.044,0,0,0-1.9-2.16,6.1,6.1,0,0,0-3.351-.829,7.019,7.019,0,0,0-3.365.787,5.671,5.671,0,0,0-2.306,2.278,7.3,7.3,0,0,0-.836,3.623,7.067,7.067,0,0,0,.871,3.623A5.848,5.848,0,0,0,43.3,20.669a7.182,7.182,0,0,0,3.393.787,5.929,5.929,0,0,0,3.866-1.177M37.716,8.36H28.325v.348h9.391Zm-.557,12.47H28.325v.348h8.833Zm-3.2.348V6.13a13.738,13.738,0,0,1,.3-3.065,4.2,4.2,0,0,1,.982-2.006A2.413,2.413,0,0,1,37.061.348,3.584,3.584,0,0,1,38.7.717a3.01,3.01,0,0,1,1.149.975,2.273,2.273,0,0,1,.418,1.317h.32a1.382,1.382,0,0,0-.3-.9,2,2,0,0,0-.759-.571,2.3,2.3,0,0,0-.934-.2,1.98,1.98,0,0,0-1.282.495,1.7,1.7,0,0,0-.6,1.386,1.692,1.692,0,0,0,1.045,1.665,2.247,2.247,0,0,0,.878.188,2.03,2.03,0,0,0,1.373-.529,1.926,1.926,0,0,0,.606-1.533,2.622,2.622,0,0,0-.425-1.386A3.39,3.39,0,0,0,38.942.467,4.009,4.009,0,0,0,36.936,0a5.892,5.892,0,0,0-3.358.934,6.087,6.087,0,0,0-2.139,2.508,8.034,8.034,0,0,0-.745,3.483V21.178ZM24.779,10.115a2.756,2.756,0,0,0-1.156-1.491,4.534,4.534,0,0,0-2.445-.543,4.064,4.064,0,0,0-2.473.7,4.692,4.692,0,0,0-1.47,1.783,8.216,8.216,0,0,0-.7,2.271,14.077,14.077,0,0,0-.188,2.181l.251-.07a11.307,11.307,0,0,1,.188-1.985,8.18,8.18,0,0,1,.613-1.979A4.175,4.175,0,0,1,18.53,9.474a2.67,2.67,0,0,1,1.756-.585,1.125,1.125,0,0,1,.968.425,2.675,2.675,0,0,1,.418,1.247,16.15,16.15,0,0,1,.1,1.992V20.83H20.216v.348h6.7V20.83H25.093V12.275a6.861,6.861,0,0,0-.314-2.159M11.453,8.36v.348h1.825V20.83H11.453v.348h6.7V20.83H16.594V8.36ZM10.06,21.178V20.83H6.716V.627H10.06V.279H0V.627H3.065v20.2H0v.348Z" transform="translate(0 0)" fill="#8ab185"/></g></svg>