<svg xmlns="http://www.w3.org/2000/svg" width="434.579" height="63.288" viewBox="0 0 434.579 63.288"><g transform="translate(-742.444 -45.84)"><path d="M-217.556,0V-.512h4.49V-30.238h-4.49v-.512h13.325v.512h-4.92V-.512h4.92V0Zm20.787-18.86V-.512h2.563V0H-203V-.512h2.6V-18.347H-203v-.513Zm12.505,5.761V-.512h2.6V0h-8.815V-.512h2.563V-12.546a30.032,30.032,0,0,0-.144-3.1,4.8,4.8,0,0,0-.676-2.173,1.854,1.854,0,0,0-1.66-.8,4.98,4.98,0,0,0-3.126.953,6.617,6.617,0,0,0-1.947,2.429,12.263,12.263,0,0,0-1,3.085,16.4,16.4,0,0,0-.3,2.962l-.348.143a19.488,19.488,0,0,1,.287-3.136,13.03,13.03,0,0,1,1.035-3.362,6.81,6.81,0,0,1,2.163-2.665,6.055,6.055,0,0,1,3.69-1.045,6.674,6.674,0,0,1,3.6.789,3.891,3.891,0,0,1,1.65,2.183A10.767,10.767,0,0,1-184.264-13.1Zm7.38,13.1V-20.972a13.609,13.609,0,0,1,.912-5.012,8.76,8.76,0,0,1,2.706-3.751,6.944,6.944,0,0,1,4.459-1.425,5.7,5.7,0,0,1,2.778.615A4.44,4.44,0,0,1-164.338-29a3.581,3.581,0,0,1,.574,1.9,2.439,2.439,0,0,1-.707,1.9,2.371,2.371,0,0,1-1.65.646,2.7,2.7,0,0,1-1.035-.215,2.044,2.044,0,0,1-.882-.707,2.179,2.179,0,0,1-.359-1.312,2.012,2.012,0,0,1,.758-1.681,2.457,2.457,0,0,1,1.517-.594,2.662,2.662,0,0,1,1.087.236,2.279,2.279,0,0,1,.882.677,1.65,1.65,0,0,1,.349,1.056h-.472a3.014,3.014,0,0,0-.553-1.732,3.992,3.992,0,0,0-1.568-1.312,5.375,5.375,0,0,0-2.409-.5,3.367,3.367,0,0,0-2.6,1.046,6.194,6.194,0,0,0-1.374,2.952,21.7,21.7,0,0,0-.41,4.51V0Zm-3.4,0V-.512h11.726V0Zm0-18.347v-.513h12.546v.513ZM-155.2.41a9.7,9.7,0,0,1-4.777-1.179,8.654,8.654,0,0,1-3.382-3.382A10.53,10.53,0,0,1-164.6-9.43a10.834,10.834,0,0,1,1.2-5.268,8.428,8.428,0,0,1,3.28-3.372A9.417,9.417,0,0,1-155.4-19.25a8.64,8.64,0,0,1,4.818,1.189,6.89,6.89,0,0,1,2.624,3.136,10.665,10.665,0,0,1,.82,4.182h-14.719v-.513h10.373q0-1.086-.123-2.388a11.3,11.3,0,0,0-.5-2.46,4.5,4.5,0,0,0-1.169-1.907,2.957,2.957,0,0,0-2.122-.748,3.788,3.788,0,0,0-2.46.779,5.136,5.136,0,0,0-1.507,2.122,12.461,12.461,0,0,0-.769,3,25.422,25.422,0,0,0-.225,3.423,24.334,24.334,0,0,0,.236,3.424,10.881,10.881,0,0,0,.83,2.973,5.208,5.208,0,0,0,1.65,2.091,4.386,4.386,0,0,0,2.675.779,7.272,7.272,0,0,0,4.807-1.558,8.317,8.317,0,0,0,2.634-3.834h.595a8.92,8.92,0,0,1-2.85,4.254A8.167,8.167,0,0,1-155.2.41Zm16.174-9.348a22.041,22.041,0,0,1,.307-3.67,13.075,13.075,0,0,1,1-3.331,6.578,6.578,0,0,1,1.814-2.409,4.156,4.156,0,0,1,2.7-.9,4.043,4.043,0,0,1,1.958.441,3.1,3.1,0,0,1,1.23,1.158,3.029,3.029,0,0,1,.42,1.558,2.628,2.628,0,0,1-.625,1.773,2.162,2.162,0,0,1-1.732.728,2.437,2.437,0,0,1-1.753-.615,2.035,2.035,0,0,1-.646-1.538,2.1,2.1,0,0,1,.758-1.773,2.634,2.634,0,0,1,1.64-.584,2.621,2.621,0,0,1,1.189.266,2.132,2.132,0,0,1,.84.728,1.791,1.791,0,0,1,.308,1.015h-.512a2.334,2.334,0,0,0-.4-1.333,2.859,2.859,0,0,0-1.107-.953,3.508,3.508,0,0,0-1.609-.359,3.738,3.738,0,0,0-2.429.84,6.282,6.282,0,0,0-1.7,2.265,13.563,13.563,0,0,0-1,3.157,18.408,18.408,0,0,0-.338,3.536Zm.307-9.922V-.512h2.727V0h-8.958V-.512h2.6V-18.347h-2.6v-.513Zm16.585,0V-.512h2.563V0h-8.794V-.512h2.6V-18.347h-2.6v-.513Zm11.685,5.761V-.512h2.583V0h-8.794V-.512h2.583V-12.628q0-1.722-.123-3.075a4.906,4.906,0,0,0-.6-2.132,1.743,1.743,0,0,0-1.609-.779,4.006,4.006,0,0,0-2.727.964,6.9,6.9,0,0,0-1.763,2.429,13.168,13.168,0,0,0-.943,3.065,16.507,16.507,0,0,0-.287,2.891l-.308.144a20,20,0,0,1,.277-3.126,13.34,13.34,0,0,1,.994-3.341,6.825,6.825,0,0,1,2.019-2.634,5.256,5.256,0,0,1,3.352-1.025,5.724,5.724,0,0,1,3.249.789,4.182,4.182,0,0,1,1.63,2.183A9.9,9.9,0,0,1-110.444-13.1Zm11.685,0V-.512h2.583V0h-8.815V-.512h2.583V-12.628a29.431,29.431,0,0,0-.144-3.075,4.791,4.791,0,0,0-.656-2.132,1.8,1.8,0,0,0-1.619-.779,4.025,4.025,0,0,0-2.757.964,6.546,6.546,0,0,0-1.712,2.429,13.724,13.724,0,0,0-.882,3.065,17.738,17.738,0,0,0-.267,2.891l-.328.144a21.558,21.558,0,0,1,.256-3.126,13.8,13.8,0,0,1,.933-3.341,6.483,6.483,0,0,1,1.978-2.634,5.29,5.29,0,0,1,3.372-1.025,5.88,5.88,0,0,1,3.28.789,4.289,4.289,0,0,1,1.691,2.183A9.34,9.34,0,0,1-98.759-13.1ZM-91.44.41A3.365,3.365,0,0,1-93.8-.3a2.443,2.443,0,0,1-.758-1.876,4.314,4.314,0,0,1,.051-.646q.051-.338.133-.666l4.264-14.862h-3.075v-.513h6.416L-91.584-1.783a2.687,2.687,0,0,0-.062.338,2.739,2.739,0,0,0-.021.318,1.007,1.007,0,0,0,.185.6.731.731,0,0,0,.635.256,3.17,3.17,0,0,0,1.907-.625,6.344,6.344,0,0,0,1.65-1.988,26.8,26.8,0,0,0,1.65-3.557l.492.164A23.352,23.352,0,0,1-86.92-2.44,6.5,6.5,0,0,1-88.878-.277,4.63,4.63,0,0,1-91.44.41Zm4.981-26.425a2.313,2.313,0,0,1-1.23-.338,2.534,2.534,0,0,1-.882-.9,2.422,2.422,0,0,1-.328-1.24,2.422,2.422,0,0,1,.328-1.24,2.451,2.451,0,0,1,.882-.892,2.367,2.367,0,0,1,1.23-.328,2.422,2.422,0,0,1,1.24.328,2.507,2.507,0,0,1,.9.892,2.365,2.365,0,0,1,.338,1.24,2.365,2.365,0,0,1-.338,1.24,2.591,2.591,0,0,1-.9.9A2.365,2.365,0,0,1-86.459-26.015ZM-78.238.41a6.237,6.237,0,0,1-3.321-.83,5.293,5.293,0,0,1-2.05-2.306,7.935,7.935,0,0,1-.7-3.424,13.41,13.41,0,0,1,.861-4.684,14.71,14.71,0,0,1,2.419-4.233,12.325,12.325,0,0,1,3.659-3.054,9.361,9.361,0,0,1,4.561-1.148,4.958,4.958,0,0,1,3.434,1.1,3.507,3.507,0,0,1,1.22,2.716A4.38,4.38,0,0,1-69.3-12.474a9.285,9.285,0,0,1-3.065,2.2,20.571,20.571,0,0,1-4.223,1.425,30.7,30.7,0,0,1-4.643.687V-8.61a23.321,23.321,0,0,0,3.341-.461A12.833,12.833,0,0,0-75.1-9.994,7.588,7.588,0,0,0-73-11.439a5.948,5.948,0,0,0,1.343-2.03,7.134,7.134,0,0,0,.471-2.685,3.818,3.818,0,0,0-.42-1.8,1.532,1.532,0,0,0-1.486-.8,4.058,4.058,0,0,0-2.224.676,8,8,0,0,0-1.968,1.845,15.844,15.844,0,0,0-1.65,2.634,21.415,21.415,0,0,0-1.261,3.1A23.931,23.931,0,0,0-81-7.277a17.71,17.71,0,0,0-.277,3.013,4.125,4.125,0,0,0,.953,3.137,3.429,3.429,0,0,0,2.388.861,7.064,7.064,0,0,0,3.147-.7,9.054,9.054,0,0,0,2.573-1.9,12.708,12.708,0,0,0,1.968-2.7l.451.267A12.333,12.333,0,0,1-71.812-2.44,9.628,9.628,0,0,1-74.641-.369,8.149,8.149,0,0,1-78.238.41ZM-67,0l4.571-18.347H-65.61v-.513h6.355L-63.765,0Zm4.489-6.6q.349-1.579.892-3.321a34.341,34.341,0,0,1,1.261-3.4,19.261,19.261,0,0,1,1.6-2.993,8.554,8.554,0,0,1,1.937-2.132,3.682,3.682,0,0,1,2.265-.8,2.817,2.817,0,0,1,2.05.718,2.339,2.339,0,0,1,.738,1.743,2.568,2.568,0,0,1-.533,1.64,1.819,1.819,0,0,1-1.517.677,2.074,2.074,0,0,1-1.517-.584,2,2,0,0,1-.594-1.486,1.881,1.881,0,0,1,.564-1.384,2.12,2.12,0,0,1,1.568-.564,2.186,2.186,0,0,1,1.415.461,1.509,1.509,0,0,1,.574,1.24h-.472a1.891,1.891,0,0,0-.584-1.384,2.261,2.261,0,0,0-1.671-.584,3.462,3.462,0,0,0-2.163.789,8.508,8.508,0,0,0-1.866,2.091,18.794,18.794,0,0,0-1.537,2.911q-.687,1.609-1.22,3.259T-62.207-6.6ZM-47.017.41A3.365,3.365,0,0,1-49.374-.3a2.443,2.443,0,0,1-.758-1.876,4.315,4.315,0,0,1,.051-.646q.051-.338.133-.666l4.264-14.862h-3.075v-.513h6.417L-47.16-1.783a2.689,2.689,0,0,0-.062.338,2.739,2.739,0,0,0-.021.318,1.008,1.008,0,0,0,.184.6.731.731,0,0,0,.636.256,3.17,3.17,0,0,0,1.906-.625,6.344,6.344,0,0,0,1.65-1.988,26.8,26.8,0,0,0,1.65-3.557l.492.164A23.352,23.352,0,0,1-42.5-2.44,6.5,6.5,0,0,1-44.454-.277,4.63,4.63,0,0,1-47.017.41Zm4.982-26.425a2.313,2.313,0,0,1-1.23-.338,2.534,2.534,0,0,1-.881-.9,2.422,2.422,0,0,1-.328-1.24,2.422,2.422,0,0,1,.328-1.24,2.451,2.451,0,0,1,.881-.892,2.367,2.367,0,0,1,1.23-.328,2.422,2.422,0,0,1,1.24.328,2.507,2.507,0,0,1,.9.892,2.366,2.366,0,0,1,.338,1.24,2.366,2.366,0,0,1-.338,1.24,2.591,2.591,0,0,1-.9.9A2.365,2.365,0,0,1-42.035-26.015ZM-20.613.41A9.019,9.019,0,0,1-25.6-.943,9.185,9.185,0,0,1-28.854-4.53,10.562,10.562,0,0,1-30-9.43a10.562,10.562,0,0,1,1.148-4.9A9.11,9.11,0,0,1-25.6-17.907a9.071,9.071,0,0,1,4.992-1.343,9.122,9.122,0,0,1,5,1.343,9.009,9.009,0,0,1,3.249,3.577,10.64,10.64,0,0,1,1.138,4.9,10.64,10.64,0,0,1-1.138,4.9A9.082,9.082,0,0,1-15.611-.943,9.07,9.07,0,0,1-20.613.41Zm0-.512a3.936,3.936,0,0,0,2.7-.892,5.652,5.652,0,0,0,1.548-2.317,12.791,12.791,0,0,0,.718-3.054,27.321,27.321,0,0,0,.184-3.065,27.215,27.215,0,0,0-.184-3.075,12.785,12.785,0,0,0-.718-3.044,5.652,5.652,0,0,0-1.548-2.316,3.936,3.936,0,0,0-2.7-.892,3.945,3.945,0,0,0-2.685.892,5.522,5.522,0,0,0-1.548,2.316,13.481,13.481,0,0,0-.717,3.044,25.8,25.8,0,0,0-.195,3.075,25.9,25.9,0,0,0,.195,3.065,13.483,13.483,0,0,0,.717,3.054A5.522,5.522,0,0,0-23.3-.994,3.945,3.945,0,0,0-20.613-.1ZM-.031,10.66a17.918,17.918,0,0,1-3.434-.318,10.215,10.215,0,0,1-2.891-.994A5.4,5.4,0,0,1-8.323,7.626a4.357,4.357,0,0,1-.707-2.5,4.088,4.088,0,0,1,.635-2.337A4.953,4.953,0,0,1-6.816,1.281,7.109,7.109,0,0,1-4.889.472,7.112,7.112,0,0,1-3.208.226h.369A4.091,4.091,0,0,0-4.7,2.091a6.367,6.367,0,0,0-.492,2.6,5.566,5.566,0,0,0,.625,2.532,5.2,5.2,0,0,0,1.886,2.05,5.753,5.753,0,0,0,3.167.81,10.169,10.169,0,0,0,2.942-.41A7.577,7.577,0,0,0,5.812,8.5,5.675,5.675,0,0,0,7.421,6.652a4.966,4.966,0,0,0,.584-2.409,3.248,3.248,0,0,0-.7-2.112A4.383,4.383,0,0,0,5.473.82,6.644,6.644,0,0,0,3,.369H-1.63A10.666,10.666,0,0,1-6.058-.4a2.641,2.641,0,0,1-1.66-2.573,3.041,3.041,0,0,1,.594-1.865A4.641,4.641,0,0,1-5.5-6.17a8.871,8.871,0,0,1,2.337-.8A13.881,13.881,0,0,1-.4-7.236l-.021.369a7.3,7.3,0,0,0-1.425.154,6.678,6.678,0,0,0-1.466.471,3.547,3.547,0,0,0-1.138.789,1.569,1.569,0,0,0-.441,1.107A1.209,1.209,0,0,0-3.762-3.065a15.334,15.334,0,0,0,2.809.215q.717,0,1.261-.01l1.045-.02q.5-.01,1.076-.01a13.385,13.385,0,0,1,2.317.205,5.67,5.67,0,0,1,2.142.84A4.411,4.411,0,0,1,8.446.031,7.915,7.915,0,0,1,9.03,3.362a6.776,6.776,0,0,1-.748,3.27A6.373,6.373,0,0,1,6.242,8.9a9.583,9.583,0,0,1-2.911,1.322A12.746,12.746,0,0,1-.031,10.66ZM-.666-6.765A10.006,10.006,0,0,1-3.208-7.1,7.518,7.518,0,0,1-5.586-8.19a5.694,5.694,0,0,1-1.753-1.937,5.832,5.832,0,0,1-.666-2.891,5.773,5.773,0,0,1,.666-2.88,5.627,5.627,0,0,1,1.753-1.917A7.832,7.832,0,0,1-3.208-18.9,9.729,9.729,0,0,1-.666-19.25a9.39,9.39,0,0,1,2.511.349,7.373,7.373,0,0,1,2.306,1.086A5.5,5.5,0,0,1,5.832-15.9a6,6,0,0,1,.635,2.88,6.063,6.063,0,0,1-.635,2.891A5.57,5.57,0,0,1,4.151-8.19,7.082,7.082,0,0,1,1.845-7.1,9.657,9.657,0,0,1-.666-6.765Zm0-.512a2.657,2.657,0,0,0,1.988-.8A4.836,4.836,0,0,0,2.47-10.189a10.412,10.412,0,0,0,.369-2.829,10.3,10.3,0,0,0-.369-2.819,4.836,4.836,0,0,0-1.148-2.1,2.657,2.657,0,0,0-1.988-.8,2.657,2.657,0,0,0-1.989.8,4.836,4.836,0,0,0-1.148,2.1,10.3,10.3,0,0,0-.369,2.819,18.352,18.352,0,0,0,.2,2.829,3.92,3.92,0,0,0,.943,2.112A3.072,3.072,0,0,0-.666-7.277Zm11.049-6.437a2.2,2.2,0,0,1-1.414-.533,1.866,1.866,0,0,1-.656-1.538,1.626,1.626,0,0,1,.666-1.466,2.5,2.5,0,0,1,1.4-.441,2.634,2.634,0,0,1,1.445.441,1.43,1.43,0,0,1,.687,1.281h-.472a2.691,2.691,0,0,0-.707-1.773,2.556,2.556,0,0,0-2.06-.83,4.824,4.824,0,0,0-1.773.389A4.842,4.842,0,0,0,5.678-16.82a6.258,6.258,0,0,0-1.261,2.737l-.369-.246A6.239,6.239,0,0,1,5.381-17.2a5.351,5.351,0,0,1,1.978-1.445,5.162,5.162,0,0,1,1.876-.42,3.33,3.33,0,0,1,1.753.451,3.243,3.243,0,0,1,1.158,1.158,2.92,2.92,0,0,1,.41,1.486,2.007,2.007,0,0,1-.7,1.783A2.59,2.59,0,0,1,10.383-13.715ZM22.724,10.66a17.918,17.918,0,0,1-3.434-.318A10.215,10.215,0,0,1,16.4,9.348a5.4,5.4,0,0,1-1.968-1.722,4.357,4.357,0,0,1-.707-2.5,4.088,4.088,0,0,1,.635-2.337,4.953,4.953,0,0,1,1.578-1.507A7.524,7.524,0,0,1,19.547.226h.369A4.091,4.091,0,0,0,18.05,2.091a6.367,6.367,0,0,0-.492,2.6,5.566,5.566,0,0,0,.625,2.532,5.2,5.2,0,0,0,1.886,2.05,5.753,5.753,0,0,0,3.167.81,10.169,10.169,0,0,0,2.942-.41A7.577,7.577,0,0,0,28.567,8.5a5.675,5.675,0,0,0,1.609-1.845,4.966,4.966,0,0,0,.584-2.409,3.248,3.248,0,0,0-.7-2.112A4.383,4.383,0,0,0,28.229.82a6.644,6.644,0,0,0-2.47-.451H21.125A10.666,10.666,0,0,1,16.7-.4a2.641,2.641,0,0,1-1.661-2.573,3.041,3.041,0,0,1,.594-1.865,4.641,4.641,0,0,1,1.62-1.332,8.871,8.871,0,0,1,2.337-.8,13.881,13.881,0,0,1,2.767-.266l-.021.369a7.3,7.3,0,0,0-1.425.154,6.678,6.678,0,0,0-1.466.471,3.547,3.547,0,0,0-1.138.789,1.569,1.569,0,0,0-.441,1.107,1.209,1.209,0,0,0,1.128,1.281,15.334,15.334,0,0,0,2.809.215q.717,0,1.261-.01l1.045-.02q.5-.01,1.076-.01a13.385,13.385,0,0,1,2.316.205,5.67,5.67,0,0,1,2.142.84A4.411,4.411,0,0,1,31.2.031a7.915,7.915,0,0,1,.584,3.331,6.776,6.776,0,0,1-.748,3.27A6.373,6.373,0,0,1,29,8.9a9.583,9.583,0,0,1-2.911,1.322A12.746,12.746,0,0,1,22.724,10.66ZM22.089-6.765A10.006,10.006,0,0,1,19.547-7.1,7.518,7.518,0,0,1,17.169-8.19a5.694,5.694,0,0,1-1.753-1.937,5.832,5.832,0,0,1-.666-2.891,5.773,5.773,0,0,1,.666-2.88,5.627,5.627,0,0,1,1.753-1.917A7.832,7.832,0,0,1,19.547-18.9a9.729,9.729,0,0,1,2.542-.349A9.39,9.39,0,0,1,24.6-18.9a7.373,7.373,0,0,1,2.306,1.086A5.5,5.5,0,0,1,28.587-15.9a6,6,0,0,1,.635,2.88,6.063,6.063,0,0,1-.635,2.891A5.57,5.57,0,0,1,26.906-8.19,7.082,7.082,0,0,1,24.6-7.1,9.657,9.657,0,0,1,22.089-6.765Zm0-.512a2.657,2.657,0,0,0,1.989-.8,4.836,4.836,0,0,0,1.148-2.112,10.412,10.412,0,0,0,.369-2.829,10.3,10.3,0,0,0-.369-2.819,4.836,4.836,0,0,0-1.148-2.1,2.657,2.657,0,0,0-1.989-.8,2.657,2.657,0,0,0-1.988.8,4.836,4.836,0,0,0-1.148,2.1,10.3,10.3,0,0,0-.369,2.819,18.352,18.352,0,0,0,.2,2.829,3.92,3.92,0,0,0,.943,2.112A3.072,3.072,0,0,0,22.089-7.277Zm11.049-6.437a2.2,2.2,0,0,1-1.414-.533,1.866,1.866,0,0,1-.656-1.538,1.626,1.626,0,0,1,.666-1.466,2.5,2.5,0,0,1,1.4-.441,2.634,2.634,0,0,1,1.445.441,1.43,1.43,0,0,1,.687,1.281H34.8a2.691,2.691,0,0,0-.707-1.773,2.556,2.556,0,0,0-2.06-.83,4.824,4.824,0,0,0-1.773.389,4.842,4.842,0,0,0-1.825,1.363,6.258,6.258,0,0,0-1.261,2.737L26.8-14.33a6.239,6.239,0,0,1,1.333-2.87,5.351,5.351,0,0,1,1.978-1.445,5.162,5.162,0,0,1,1.876-.42,3.33,3.33,0,0,1,1.753.451A3.243,3.243,0,0,1,34.9-17.456a2.92,2.92,0,0,1,.41,1.486,2.007,2.007,0,0,1-.7,1.783A2.59,2.59,0,0,1,33.138-13.715Zm8.22-12.444a2.349,2.349,0,0,1-1.732-.738,2.4,2.4,0,0,1-.728-1.742,2.356,2.356,0,0,1,.728-1.743,2.382,2.382,0,0,1,1.732-.717,2.372,2.372,0,0,1,1.743.717,2.372,2.372,0,0,1,.717,1.743A2.417,2.417,0,0,1,43.1-26.9,2.339,2.339,0,0,1,41.359-26.158Zm1.825,7.3V-.512h2.6V0H36.91V-.512h2.583V-18.347H36.91v-.513ZM66.635.41A9.7,9.7,0,0,1,61.859-.769a8.655,8.655,0,0,1-3.382-3.382,10.53,10.53,0,0,1-1.25-5.279,10.834,10.834,0,0,1,1.2-5.268,8.428,8.428,0,0,1,3.28-3.372A9.417,9.417,0,0,1,66.43-19.25a8.639,8.639,0,0,1,4.817,1.189,6.89,6.89,0,0,1,2.624,3.136,10.666,10.666,0,0,1,.82,4.182H59.973v-.513H70.346q0-1.086-.123-2.388a11.3,11.3,0,0,0-.5-2.46,4.5,4.5,0,0,0-1.169-1.907,2.957,2.957,0,0,0-2.122-.748,3.788,3.788,0,0,0-2.46.779,5.136,5.136,0,0,0-1.507,2.122,12.46,12.46,0,0,0-.769,3,25.421,25.421,0,0,0-.226,3.423,24.333,24.333,0,0,0,.236,3.424,10.88,10.88,0,0,0,.83,2.973,5.208,5.208,0,0,0,1.65,2.091,4.386,4.386,0,0,0,2.675.779,7.272,7.272,0,0,0,4.807-1.558A8.317,8.317,0,0,0,74.3-5.556H74.9A8.92,8.92,0,0,1,72.047-1.3,8.167,8.167,0,0,1,66.635.41ZM95.089.389A7.918,7.918,0,0,1,90.948-.779a8.878,8.878,0,0,1-3.177-3.362,10.613,10.613,0,0,1-1.23-5.268,10.671,10.671,0,0,1,1.23-5.279,8.939,8.939,0,0,1,3.177-3.382,7.866,7.866,0,0,1,4.141-1.179,5.494,5.494,0,0,1,4.274,1.855,9.739,9.739,0,0,1,2.183,5.135V-30.238H98.964v-.512h6.294V-.512h2.583V0h-6.294V-6.581a9.716,9.716,0,0,1-2.183,5.115A5.494,5.494,0,0,1,95.089.389Zm.676-.779a4.505,4.505,0,0,0,2.87-1.046,7.2,7.2,0,0,0,2.112-3.054,13.344,13.344,0,0,0,.8-4.92,13.574,13.574,0,0,0-.8-4.961,7.192,7.192,0,0,0-2.112-3.075,4.505,4.505,0,0,0-2.87-1.046,3.7,3.7,0,0,0-2.757,1.117,7.133,7.133,0,0,0-1.66,3.167,18.2,18.2,0,0,0-.564,4.8,17.961,17.961,0,0,0,.564,4.777A7.046,7.046,0,0,0,93.008-1.5,3.721,3.721,0,0,0,95.766-.389Zm23.7.8a9.019,9.019,0,0,1-4.992-1.353,9.185,9.185,0,0,1-3.249-3.587,10.563,10.563,0,0,1-1.148-4.9,10.563,10.563,0,0,1,1.148-4.9,9.11,9.11,0,0,1,3.249-3.577,9.071,9.071,0,0,1,4.992-1.343,9.122,9.122,0,0,1,5,1.343,9.009,9.009,0,0,1,3.249,3.577,10.64,10.64,0,0,1,1.138,4.9,10.64,10.64,0,0,1-1.138,4.9,9.082,9.082,0,0,1-3.249,3.587A9.07,9.07,0,0,1,119.464.41Zm0-.512a3.936,3.936,0,0,0,2.7-.892,5.652,5.652,0,0,0,1.548-2.317,12.791,12.791,0,0,0,.717-3.054,27.32,27.32,0,0,0,.185-3.065,27.215,27.215,0,0,0-.185-3.075,12.785,12.785,0,0,0-.717-3.044,5.652,5.652,0,0,0-1.548-2.316,3.936,3.936,0,0,0-2.7-.892,3.945,3.945,0,0,0-2.686.892,5.522,5.522,0,0,0-1.548,2.316,13.48,13.48,0,0,0-.717,3.044,25.8,25.8,0,0,0-.195,3.075,25.9,25.9,0,0,0,.195,3.065,13.482,13.482,0,0,0,.717,3.054,5.522,5.522,0,0,0,1.548,2.317A3.945,3.945,0,0,0,119.464-.1ZM137.3-18.86V-.512h2.563V0h-8.794V-.512h2.6V-18.347h-2.6v-.513ZM148.984-13.1V-.512h2.583V0h-8.795V-.512h2.583V-12.628q0-1.722-.123-3.075a4.906,4.906,0,0,0-.6-2.132,1.743,1.743,0,0,0-1.609-.779,4.006,4.006,0,0,0-2.727.964,6.9,6.9,0,0,0-1.763,2.429,13.168,13.168,0,0,0-.943,3.065,16.508,16.508,0,0,0-.287,2.891l-.307.144a20,20,0,0,1,.277-3.126,13.339,13.339,0,0,1,.994-3.341,6.825,6.825,0,0,1,2.019-2.634,5.256,5.256,0,0,1,3.352-1.025,5.724,5.724,0,0,1,3.249.789,4.182,4.182,0,0,1,1.63,2.183A9.9,9.9,0,0,1,148.984-13.1Zm11.685,0V-.512h2.583V0h-8.815V-.512h2.583V-12.628a29.433,29.433,0,0,0-.143-3.075,4.791,4.791,0,0,0-.656-2.132,1.8,1.8,0,0,0-1.619-.779,4.025,4.025,0,0,0-2.757.964,6.546,6.546,0,0,0-1.712,2.429,13.725,13.725,0,0,0-.882,3.065,17.739,17.739,0,0,0-.266,2.891l-.328.144a21.557,21.557,0,0,1,.256-3.126,13.8,13.8,0,0,1,.933-3.341,6.483,6.483,0,0,1,1.978-2.634A5.29,5.29,0,0,1,155.2-19.25a5.88,5.88,0,0,1,3.28.789,4.289,4.289,0,0,1,1.691,2.183A9.34,9.34,0,0,1,160.669-13.1ZM180.656.41A5.125,5.125,0,0,1,178.862.1,2.72,2.72,0,0,1,177.52-.974a3.878,3.878,0,0,1-.513-2.163v-9.348a17.553,17.553,0,0,0-.236-2.89,4.752,4.752,0,0,0-1.015-2.337,2.992,2.992,0,0,0-2.419-.923,9.39,9.39,0,0,0-2.07.236,7.87,7.87,0,0,0-1.927.7,4.425,4.425,0,0,0-1.425,1.138,2.418,2.418,0,0,0-.543,1.558h-.594a2.086,2.086,0,0,1,.687-1.65,2.232,2.232,0,0,1,1.507-.6,2.567,2.567,0,0,1,1.609.564,1.915,1.915,0,0,1,.728,1.609,2.071,2.071,0,0,1-.748,1.784,2.626,2.626,0,0,1-1.589.554,2.305,2.305,0,0,1-1.589-.574,2.131,2.131,0,0,1-.646-1.681,2.7,2.7,0,0,1,.615-1.732,5.09,5.09,0,0,1,1.66-1.312,9.758,9.758,0,0,1,2.368-.84,12.346,12.346,0,0,1,2.716-.3,7.354,7.354,0,0,1,4.223.984,4.673,4.673,0,0,1,1.855,2.522,11.069,11.069,0,0,1,.461,3.2V-2.173a2.61,2.61,0,0,0,.256,1.2,1.09,1.09,0,0,0,1.076.5,2.35,2.35,0,0,0,1.353-.543,3.637,3.637,0,0,0,1.148-1.425l.246.451a4.521,4.521,0,0,1-1.589,1.712A4.428,4.428,0,0,1,180.656.41Zm-9.512,0A6.31,6.31,0,0,1,166.89-.953a4.623,4.623,0,0,1-1.589-3.7,4.831,4.831,0,0,1,2.337-4.274,12.259,12.259,0,0,1,6.7-1.527h4.572V-10h-4.572a4.677,4.677,0,0,0-2.88.81A4.673,4.673,0,0,0,169.9-7.206a6.071,6.071,0,0,0-.482,2.306,7.573,7.573,0,0,0,.287,2.05,3.83,3.83,0,0,0,.943,1.691,2.309,2.309,0,0,0,1.722.666,3.85,3.85,0,0,0,2.245-.738,5.2,5.2,0,0,0,1.722-2.286,10.047,10.047,0,0,0,.666-3.946h.308a11.492,11.492,0,0,1-.676,4.11A5.944,5.944,0,0,1,174.6-.584,5.711,5.711,0,0,1,171.144.41Zm20.131-19.27V-.512h2.563V0h-8.794V-.512h2.6V-18.347h-2.6v-.513ZM203.78-13.1V-.512h2.6V0h-8.815V-.512h2.563V-12.546a30.032,30.032,0,0,0-.144-3.1,4.8,4.8,0,0,0-.676-2.173,1.854,1.854,0,0,0-1.66-.8,4.98,4.98,0,0,0-3.126.953,6.617,6.617,0,0,0-1.948,2.429,12.264,12.264,0,0,0-1,3.085,16.4,16.4,0,0,0-.3,2.962l-.348.143a19.488,19.488,0,0,1,.287-3.136,13.03,13.03,0,0,1,1.035-3.362,6.81,6.81,0,0,1,2.163-2.665,6.055,6.055,0,0,1,3.69-1.045,6.674,6.674,0,0,1,3.6.789,3.891,3.891,0,0,1,1.65,2.183A10.767,10.767,0,0,1,203.78-13.1ZM212.6-26.158a2.349,2.349,0,0,1-1.732-.738,2.4,2.4,0,0,1-.728-1.742,2.356,2.356,0,0,1,.728-1.743A2.382,2.382,0,0,1,212.6-31.1a2.372,2.372,0,0,1,1.743.717,2.372,2.372,0,0,1,.717,1.743,2.417,2.417,0,0,1-.717,1.742A2.339,2.339,0,0,1,212.6-26.158Zm1.825,7.3V-.512h2.6V0h-8.876V-.512h2.583V-18.347h-2.583v-.513Z" transform="translate(960 77)" fill="#202a2c"/><path d="M50.312,12.152a14.934,14.934,0,0,0-1.956.18,5.638,5.638,0,0,0-1.352.38,2.019,2.019,0,0,0-.788.572,1.205,1.205,0,0,0-.256.756,1.669,1.669,0,0,0,.132.692,1.353,1.353,0,0,0,.352.48,1.4,1.4,0,0,0,.508.276,2.042,2.042,0,0,0,.6.088,3.41,3.41,0,0,0,.852-.1,3.157,3.157,0,0,0,.72-.28,3.516,3.516,0,0,0,.62-.428q.288-.248.568-.536Zm-4.68-2.984a4.626,4.626,0,0,1,1.312-.944A3.657,3.657,0,0,1,48.5,7.9a2.846,2.846,0,0,1,1.12.2,2.069,2.069,0,0,1,.8.584,2.553,2.553,0,0,1,.476.92,4.231,4.231,0,0,1,.16,1.2V16h-.3a.274.274,0,0,1-.3-.224l-.112-1.024a8.351,8.351,0,0,1-.652.576,3.911,3.911,0,0,1-.676.432,3.47,3.47,0,0,1-.76.272,3.912,3.912,0,0,1-.9.1,2.64,2.64,0,0,1-.792-.12,2,2,0,0,1-.684-.368A1.784,1.784,0,0,1,45.4,15a2.2,2.2,0,0,1-.18-.932,1.655,1.655,0,0,1,.288-.936,2.36,2.36,0,0,1,.9-.752A6,6,0,0,1,48,11.872a13.706,13.706,0,0,1,2.316-.224v-.832a2.666,2.666,0,0,0-.476-1.7,1.7,1.7,0,0,0-1.412-.6,2.665,2.665,0,0,0-.98.16,3.47,3.47,0,0,0-.684.352,4.313,4.313,0,0,0-.456.352.494.494,0,0,1-.3.16.242.242,0,0,1-.144-.04.361.361,0,0,1-.1-.1ZM63.3,9.1a.827.827,0,0,1-.076.068.159.159,0,0,1-.1.028.4.4,0,0,1-.216-.108,2.706,2.706,0,0,0-.368-.236,3.138,3.138,0,0,0-.58-.236,3.242,3.242,0,0,0-2.064.136,2.459,2.459,0,0,0-.9.7,3.118,3.118,0,0,0-.556,1.1,5.223,5.223,0,0,0-.188,1.456,5.146,5.146,0,0,0,.2,1.488A3.169,3.169,0,0,0,59,14.6a2.368,2.368,0,0,0,.872.676,2.721,2.721,0,0,0,1.136.232,2.943,2.943,0,0,0,.964-.136,3.142,3.142,0,0,0,.64-.3,2.668,2.668,0,0,0,.4-.3.4.4,0,0,1,.24-.136.2.2,0,0,1,.16.08l.2.256a2.327,2.327,0,0,1-.464.448,3.147,3.147,0,0,1-.632.36,3.875,3.875,0,0,1-.764.236,4.3,4.3,0,0,1-.86.084,3.413,3.413,0,0,1-1.388-.276,3.009,3.009,0,0,1-1.08-.8,3.743,3.743,0,0,1-.7-1.284,5.48,5.48,0,0,1-.252-1.728,5.453,5.453,0,0,1,.24-1.664,3.708,3.708,0,0,1,.7-1.3,3.179,3.179,0,0,1,1.132-.844,3.7,3.7,0,0,1,1.532-.3,3.578,3.578,0,0,1,1.376.248,3.394,3.394,0,0,1,1.048.672ZM71.664,8.04V16H71.24a.215.215,0,0,1-.232-.208l-.072-1.184a4.512,4.512,0,0,1-1.276,1.1,3.177,3.177,0,0,1-1.612.416,2.983,2.983,0,0,1-1.16-.208,2.128,2.128,0,0,1-.824-.6,2.656,2.656,0,0,1-.5-.944,4.283,4.283,0,0,1-.168-1.248V8.04h.768v5.088a2.727,2.727,0,0,0,.512,1.756,1.883,1.883,0,0,0,1.56.636,2.824,2.824,0,0,0,1.452-.4,4.1,4.1,0,0,0,1.2-1.1V8.04Zm3.344,1.92a4.958,4.958,0,0,1,.42-.868,2.751,2.751,0,0,1,.544-.644,2.238,2.238,0,0,1,.688-.4A2.426,2.426,0,0,1,77.5,7.9a2.7,2.7,0,0,1,.488.044,1.236,1.236,0,0,1,.424.156l-.064.528a.154.154,0,0,1-.152.128,1.186,1.186,0,0,1-.292-.056,1.935,1.935,0,0,0-.516-.056,2.229,2.229,0,0,0-.82.14,1.891,1.891,0,0,0-.64.42,2.69,2.69,0,0,0-.5.692,6.528,6.528,0,0,0-.388.948V16H74.28V8.04h.408a.266.266,0,0,1,.192.056.322.322,0,0,1,.072.192Zm9.216,2.192a14.934,14.934,0,0,0-1.956.18,5.638,5.638,0,0,0-1.352.38,2.019,2.019,0,0,0-.788.572,1.205,1.205,0,0,0-.256.756,1.669,1.669,0,0,0,.132.692,1.353,1.353,0,0,0,.352.48,1.4,1.4,0,0,0,.508.276,2.042,2.042,0,0,0,.6.088,3.41,3.41,0,0,0,.852-.1,3.157,3.157,0,0,0,.72-.28,3.515,3.515,0,0,0,.62-.428q.288-.248.568-.536Zm-4.68-2.984a4.626,4.626,0,0,1,1.312-.944,3.657,3.657,0,0,1,1.56-.32,2.846,2.846,0,0,1,1.12.2,2.069,2.069,0,0,1,.8.584,2.553,2.553,0,0,1,.476.92,4.231,4.231,0,0,1,.16,1.2V16h-.3a.274.274,0,0,1-.3-.224l-.112-1.024a8.352,8.352,0,0,1-.652.576,3.911,3.911,0,0,1-.676.432,3.47,3.47,0,0,1-.76.272,3.912,3.912,0,0,1-.9.1,2.64,2.64,0,0,1-.792-.12,2,2,0,0,1-.684-.368,1.784,1.784,0,0,1-.48-.636,2.2,2.2,0,0,1-.18-.932,1.655,1.655,0,0,1,.288-.936,2.36,2.36,0,0,1,.9-.752,6,6,0,0,1,1.58-.512,13.706,13.706,0,0,1,2.316-.224v-.832a2.666,2.666,0,0,0-.476-1.7,1.7,1.7,0,0,0-1.412-.6,2.665,2.665,0,0,0-.98.16,3.47,3.47,0,0,0-.684.352,4.312,4.312,0,0,0-.456.352.494.494,0,0,1-.3.16.242.242,0,0,1-.144-.04.361.361,0,0,1-.1-.1Zm17.744.584a2.725,2.725,0,0,0-1.012-.968,3.051,3.051,0,0,0-2.5-.024,2.425,2.425,0,0,0-.884.724,3.262,3.262,0,0,0-.536,1.12,5.387,5.387,0,0,0-.18,1.436,4.242,4.242,0,0,0,.652,2.612,2.246,2.246,0,0,0,1.884.836,2.634,2.634,0,0,0,1.432-.408,3.893,3.893,0,0,0,1.144-1.144Zm.76-5.392V16h-.416a.219.219,0,0,1-.24-.208l-.08-1.256A4.238,4.238,0,0,1,96.08,15.68,3.01,3.01,0,0,1,94.5,16.1a2.769,2.769,0,0,1-2.288-1.016,4.8,4.8,0,0,1-.816-3.048,5.613,5.613,0,0,1,.228-1.628A3.907,3.907,0,0,1,92.288,9.1a3.154,3.154,0,0,1,1.084-.876,3.293,3.293,0,0,1,1.484-.32,3.1,3.1,0,0,1,1.4.3,2.932,2.932,0,0,1,1.032.88V4.36Zm3.472,3.68V16h-.76V8.04Zm.328-2.744a.607.607,0,0,1-.06.268.8.8,0,0,1-.156.22.724.724,0,0,1-.224.152.689.689,0,0,1-.544,0,.724.724,0,0,1-.224-.152.738.738,0,0,1-.152-.22.644.644,0,0,1-.056-.268.7.7,0,0,1,.056-.276.711.711,0,0,1,.152-.228.724.724,0,0,1,.224-.152.689.689,0,0,1,.544,0,.724.724,0,0,1,.224.152.769.769,0,0,1,.156.228A.66.66,0,0,1,101.848,5.3Zm7.912.064v4.76h5.16v.68h-5.16V16h-.824V4.68h6.784v.68ZM126.7,4.68V16h-.384a.365.365,0,0,1-.172-.036.406.406,0,0,1-.132-.124l-7.352-9.824q.024.24.024.456V16h-.72V4.68h.408a.419.419,0,0,1,.172.028.393.393,0,0,1,.132.124l7.336,9.8q-.024-.24-.024-.456V4.68Zm13.4,5.656a6.866,6.866,0,0,1-.392,2.38,5.273,5.273,0,0,1-1.1,1.824,4.874,4.874,0,0,1-1.708,1.168,6.048,6.048,0,0,1-4.388,0,4.882,4.882,0,0,1-1.7-1.168,5.273,5.273,0,0,1-1.1-1.824,6.866,6.866,0,0,1-.392-2.38,6.841,6.841,0,0,1,.392-2.372,5.273,5.273,0,0,1,1.1-1.824,4.928,4.928,0,0,1,1.7-1.172,5.614,5.614,0,0,1,2.192-.416,5.691,5.691,0,0,1,2.2.412,4.848,4.848,0,0,1,1.708,1.172,5.316,5.316,0,0,1,1.1,1.828A6.841,6.841,0,0,1,140.1,10.336Zm-.848,0a6.459,6.459,0,0,0-.328-2.128,4.547,4.547,0,0,0-.928-1.6,4,4,0,0,0-1.44-1,5.1,5.1,0,0,0-3.7,0,4.038,4.038,0,0,0-1.444,1,4.562,4.562,0,0,0-.936,1.6,6.388,6.388,0,0,0-.332,2.128,6.379,6.379,0,0,0,.332,2.132,4.568,4.568,0,0,0,.936,1.6,4,4,0,0,0,1.444,1,5.157,5.157,0,0,0,3.7,0,3.958,3.958,0,0,0,1.44-1,4.553,4.553,0,0,0,.928-1.6A6.45,6.45,0,0,0,139.256,10.336Zm6.384.448a4.014,4.014,0,0,0,1.336-.208,2.959,2.959,0,0,0,1-.576,2.5,2.5,0,0,0,.632-.868,2.682,2.682,0,0,0,.22-1.092,2.533,2.533,0,0,0-.8-2.008,3.529,3.529,0,0,0-2.392-.7h-2.1v5.456Zm0-6.1a4.492,4.492,0,0,1,3,.872,3.106,3.106,0,0,1,1.012,2.488,3.3,3.3,0,0,1-.28,1.368,3.082,3.082,0,0,1-.8,1.076,3.72,3.72,0,0,1-1.264.7,5.193,5.193,0,0,1-1.672.252h-2.1V16h-.824V4.68ZM152.784,16h-.824V4.68h.824Z" transform="translate(861 93)" fill="#202a2c"/></g></svg>